<svg width="284" height="39" viewBox="0 0 284 39" fill="none" xmlns="http://www.w3.org/2000/svg">
<path d="M43.6361 18.1626C44.0896 18.1626 44.5196 18.2467 44.9262 18.4148C45.3328 18.579 45.6925 18.837 46.0053 19.1889C46.3219 19.5368 46.5702 19.9844 46.75 20.5318C46.9298 21.0752 47.0198 21.73 47.0198 22.4963V22.508C47.0198 23.458 46.8829 24.2712 46.6093 24.9475C46.3356 25.6239 45.9427 26.1438 45.4306 26.5074C44.9223 26.8671 44.3144 27.0469 43.6068 27.0469C43.0868 27.0469 42.6177 26.9531 42.1994 26.7654C41.785 26.5739 41.4409 26.3119 41.1673 25.9796C40.8975 25.6434 40.7157 25.2603 40.6219 24.8302L40.6102 24.7657H42.0938L42.1173 24.8244C42.1915 25.0199 42.2971 25.1919 42.4339 25.3404C42.5747 25.489 42.7428 25.6043 42.9383 25.6864C43.1376 25.7646 43.3605 25.8037 43.6068 25.8037C44.0525 25.8037 44.416 25.6727 44.6975 25.4108C44.9829 25.145 45.196 24.7912 45.3367 24.3494C45.4814 23.9037 45.5635 23.4111 45.583 22.8716C45.5869 22.813 45.5889 22.7563 45.5889 22.7015C45.5889 22.6429 45.5889 22.5862 45.5889 22.5315L45.325 21.1182C45.325 20.7976 45.2507 20.5064 45.1022 20.2444C44.9536 19.9825 44.7523 19.7753 44.4981 19.6228C44.2479 19.4703 43.9645 19.3941 43.6478 19.3941C43.3429 19.3941 43.0634 19.4684 42.8092 19.6169C42.5551 19.7655 42.3518 19.9688 42.1994 20.2268C42.0469 20.4809 41.9707 20.7663 41.9707 21.083V21.0947C41.9707 21.4231 42.043 21.7144 42.1876 21.9685C42.3323 22.2187 42.5297 22.4161 42.7799 22.5608C43.0301 22.7054 43.3155 22.7778 43.6361 22.7778C43.9567 22.7778 44.244 22.7074 44.4981 22.5667C44.7523 22.4259 44.9536 22.2304 45.1022 21.9802C45.2507 21.73 45.325 21.4466 45.325 21.1299V21.1182H45.6769V22.6781H45.4716C45.37 22.9009 45.2194 23.1081 45.0201 23.2997C44.8207 23.4912 44.5744 23.6457 44.2812 23.763C43.9919 23.8802 43.6517 23.9389 43.2608 23.9389C42.7213 23.9389 42.2443 23.8177 41.8299 23.5753C41.4155 23.3329 41.0891 23.0006 40.8506 22.5784C40.616 22.1562 40.4987 21.6792 40.4987 21.1475V21.1358C40.4987 20.5611 40.6317 20.0509 40.8975 19.6052C41.1673 19.1556 41.5387 18.8038 42.0117 18.5497C42.4887 18.2916 43.0301 18.1626 43.6361 18.1626ZM49.6821 25.6982C49.4163 25.6982 49.1934 25.6102 49.0136 25.4343C48.8377 25.2544 48.7497 25.0355 48.7497 24.7775C48.7497 24.5155 48.8377 24.2966 49.0136 24.1207C49.1934 23.9408 49.4163 23.8509 49.6821 23.8509C49.9519 23.8509 50.1747 23.9408 50.3506 24.1207C50.5266 24.2966 50.6145 24.5155 50.6145 24.7775C50.6145 25.0355 50.5266 25.2544 50.3506 25.4343C50.1747 25.6102 49.9519 25.6982 49.6821 25.6982ZM49.6821 21.3469C49.4163 21.3469 49.1934 21.2589 49.0136 21.083C48.8377 20.9032 48.7497 20.6842 48.7497 20.4262C48.7497 20.1643 48.8377 19.9453 49.0136 19.7694C49.1934 19.5896 49.4163 19.4997 49.6821 19.4997C49.9519 19.4997 50.1747 19.5896 50.3506 19.7694C50.5266 19.9453 50.6145 20.1643 50.6145 20.4262C50.6145 20.6842 50.5266 20.9032 50.3506 21.083C50.1747 21.2589 49.9519 21.3469 49.6821 21.3469ZM56.4495 26.8358V25.2114H52.3093V23.9741C52.5321 23.5948 52.755 23.2137 52.9778 22.8305C53.2046 22.4474 53.4333 22.0662 53.6639 21.687C53.8985 21.3039 54.1311 20.9266 54.3618 20.5552C54.5964 20.1799 54.829 19.8105 55.0596 19.4469C55.2942 19.0794 55.5288 18.7217 55.7633 18.3737H57.8921V23.9623H59.0356V25.2114H57.8921V26.8358H56.4495ZM53.7167 23.9975H56.4729V19.5818H56.3849C56.2129 19.8476 56.035 20.1213 55.8513 20.4028C55.6715 20.6842 55.4897 20.9716 55.3059 21.2648C55.1222 21.558 54.9404 21.8532 54.7606 22.1503C54.5807 22.4435 54.4028 22.7387 54.2269 23.0358C54.051 23.329 53.8809 23.6203 53.7167 23.9096V23.9975ZM62.5365 26.8358V19.8632H62.431L60.3257 21.3469V19.9277L62.5365 18.3737H64.0436V26.8358H62.5365Z" fill="black"/>
<path fill-rule="evenodd" clip-rule="evenodd" d="M217.497 19.3269C217.497 18.8796 217.159 18.5171 216.743 18.5171H215.99C215.573 18.5171 215.236 18.8796 215.236 19.3269V26.3449C215.236 26.7921 215.573 27.1547 215.99 27.1547H216.743C217.159 27.1547 217.497 26.7921 217.497 26.3449V19.3269ZM212.245 20.2446H212.998C213.415 20.2446 213.752 20.6159 213.752 21.0738V26.3254C213.752 26.7834 213.415 27.1547 212.998 27.1547H212.245C211.829 27.1547 211.491 26.7834 211.491 26.3254V21.0738C211.491 20.6159 211.829 20.2446 212.245 20.2446ZM209.185 22.1161H208.431C208.015 22.1161 207.677 22.492 207.677 22.9558V26.3149C207.677 26.7787 208.015 27.1546 208.431 27.1546H209.185C209.601 27.1546 209.938 26.7787 209.938 26.3149V22.9558C209.938 22.492 209.601 22.1161 209.185 22.1161ZM205.44 23.8436H204.686C204.27 23.8436 203.933 24.2142 203.933 24.6714V26.3269C203.933 26.7841 204.27 27.1547 204.686 27.1547H205.44C205.856 27.1547 206.193 26.7841 206.193 26.3269V24.6714C206.193 24.2142 205.856 23.8436 205.44 23.8436Z" fill="black"/>
<path fill-rule="evenodd" clip-rule="evenodd" d="M228.497 20.2234C230.255 20.2235 231.944 20.8749 233.218 22.0431C233.314 22.1332 233.467 22.1321 233.561 22.0405L234.478 21.1479C234.526 21.1014 234.553 21.0385 234.552 20.973C234.552 20.9076 234.524 20.8449 234.476 20.799C231.134 17.7084 225.861 17.7084 222.518 20.799C222.47 20.8449 222.443 20.9075 222.442 20.973C222.442 21.0385 222.468 21.1014 222.516 21.1479L223.433 22.0405C223.527 22.1322 223.681 22.1334 223.777 22.0431C225.05 20.8748 226.74 20.2234 228.497 20.2234ZM228.495 23.2049C229.454 23.2049 230.379 23.5664 231.089 24.2193C231.186 24.3119 231.337 24.3099 231.431 24.2147L232.34 23.2827C232.388 23.2338 232.415 23.1675 232.414 23.0985C232.413 23.0296 232.385 22.9639 232.337 22.916C230.172 20.8737 226.82 20.8737 224.656 22.916C224.607 22.9639 224.579 23.0297 224.578 23.0986C224.577 23.1675 224.604 23.2339 224.652 23.2827L225.561 24.2147C225.655 24.3099 225.806 24.3119 225.903 24.2193C226.613 23.5668 227.537 23.2053 228.495 23.2049ZM230.279 25.1785C230.28 25.2529 230.254 25.3247 230.206 25.3768L228.668 27.111C228.623 27.1619 228.562 27.1906 228.498 27.1906C228.434 27.1906 228.372 27.1619 228.327 27.111L226.789 25.3768C226.742 25.3246 226.715 25.2528 226.717 25.1784C226.718 25.104 226.747 25.0335 226.797 24.9836C227.779 24.0554 229.217 24.0554 230.199 24.9836C230.248 25.0335 230.277 25.104 230.279 25.1785Z" fill="black"/>
<rect opacity="0.35" x="239.851" y="18.597" width="16.9552" height="8.47761" rx="2.68458" stroke="black" stroke-width="0.706468"/>
<path opacity="0.4" d="M257.865 21.6215V24.5006C258.434 24.2568 258.804 23.6895 258.804 23.0611C258.804 22.4326 258.434 21.8653 257.865 21.6215" fill="black"/>
<rect x="240.91" y="19.6567" width="14.8358" height="6.35821" rx="1.76617" fill="black"/>
</svg>
