<svg width="360" height="48" viewBox="0 0 360 48" fill="none" xmlns="http://www.w3.org/2000/svg">
<rect width="360" height="48" rx="12" fill="#FF0032"/>
<path d="M144.867 29.5H143.117V18.2266H144.867V23.0703H145.305L149.508 18.2266H151.594L146.773 23.5938L152.062 29.5H149.797L145.305 24.4453H144.867V29.5ZM161.414 29.6875C158.219 29.6875 156.188 27.4375 156.188 23.8594V23.8516C156.188 20.2734 158.219 18.0391 161.414 18.0391C163.898 18.0391 165.766 19.5703 166.125 21.7969L166.133 21.8672H164.398L164.352 21.7109C163.977 20.3906 162.93 19.5859 161.414 19.5859C159.32 19.5859 157.977 21.2422 157.977 23.8516V23.8594C157.977 26.4688 159.328 28.1406 161.414 28.1406C162.914 28.1406 163.953 27.3594 164.383 25.9297L164.398 25.8594H166.141L166.125 25.9375C165.773 28.1797 163.906 29.6875 161.414 29.6875ZM167.867 29.5V18.2266H174.773V19.7344H169.617V22.625H172.117C174.32 22.625 175.867 24.0234 175.867 26.0469V26.0625C175.867 28.1016 174.344 29.5 172.156 29.5H167.867ZM169.617 28.0156H171.711C173.219 28.0156 174.086 27.3125 174.086 26.0625V26.0469C174.086 24.7891 173.211 24.0859 171.703 24.0859H169.617V28.0156ZM182.703 29.6875C179.453 29.6875 177.422 27.4531 177.422 23.8672V23.8516C177.422 20.2734 179.461 18.0391 182.703 18.0391C185.953 18.0391 187.984 20.2812 187.984 23.8516V23.8672C187.984 27.4453 185.961 29.6875 182.703 29.6875ZM182.703 28.1406C184.867 28.1406 186.195 26.4688 186.195 23.8672V23.8516C186.195 21.2344 184.844 19.5859 182.703 19.5859C180.57 19.5859 179.203 21.2266 179.203 23.8516V23.8672C179.203 26.4922 180.562 28.1406 182.703 28.1406ZM189.797 29.5V18.2266H193.992C196.211 18.2266 197.734 19.7109 197.734 21.9219V21.9375C197.734 24.1406 196.211 25.6484 193.992 25.6484H191.547V29.5H189.797ZM193.562 19.7031H191.547V24.1797H193.562C195.078 24.1797 195.953 23.3594 195.953 21.9453V21.9297C195.953 20.5234 195.078 19.7031 193.562 19.7031ZM201.18 29.5H199.43V18.2266H201.18V23.0703H201.617L205.82 18.2266H207.906L203.086 23.5938L208.375 29.5H206.109L201.617 24.4453H201.18V29.5ZM209.656 29.5V18.2266H216.812V19.7344H211.406V23.0234H216.523V24.4922H211.406V27.9922H216.812V29.5H209.656Z" fill="white"/>
</svg>
