<svg width="30" height="33" viewBox="0 0 30 33" fill="none" xmlns="http://www.w3.org/2000/svg">
<path d="M21.25 31.5C21.25 31.8315 21.1184 32.1495 20.8839 32.3839C20.6495 32.6183 20.3316 32.75 20 32.75H10C9.66853 32.75 9.35058 32.6183 9.11616 32.3839C8.88174 32.1495 8.75005 31.8315 8.75005 31.5C8.75005 31.1685 8.88174 30.8505 9.11616 30.6161C9.35058 30.3817 9.66853 30.25 10 30.25H20C20.3316 30.25 20.6495 30.3817 20.8839 30.6161C21.1184 30.8505 21.25 31.1685 21.25 31.5ZM29.6641 26.5C29.4472 26.8821 29.1324 27.1993 28.7519 27.4191C28.3715 27.6388 27.9394 27.753 27.5 27.75H2.50005C2.06057 27.7494 1.62902 27.633 1.24888 27.4124C0.868748 27.1919 0.553464 26.8751 0.33481 26.4938C0.116155 26.1126 0.0018565 25.6805 0.00343408 25.241C0.00501166 24.8016 0.12241 24.3703 0.343796 23.9906C1.21098 22.4969 2.50005 18.2719 2.50005 12.75C2.50005 9.43479 3.81701 6.25537 6.16121 3.91117C8.50542 1.56696 11.6848 0.25 15 0.25C18.3153 0.25 21.4947 1.56696 23.8389 3.91117C26.1831 6.25537 27.5 9.43479 27.5 12.75C27.5 18.2703 28.7907 22.4969 29.6579 23.9906C29.8815 24.3708 29.9997 24.8036 30.0006 25.2447C30.0014 25.6857 29.8847 26.119 29.6625 26.5H29.6641ZM27.5 25.25C26.2922 23.1766 25 18.3828 25 12.75C25 10.0978 23.9465 7.5543 22.0711 5.67893C20.1958 3.80357 17.6522 2.75 15 2.75C12.3479 2.75 9.80434 3.80357 7.92898 5.67893C6.05361 7.5543 5.00005 10.0978 5.00005 12.75C5.00005 18.3844 3.7063 23.1781 2.50005 25.25H27.5Z" fill="#0D2325"/>
</svg>
