<svg width="56" height="56" viewBox="0 0 56 56" fill="none" xmlns="http://www.w3.org/2000/svg">
<rect width="56" height="56" rx="28" fill="#FF0032"/>
<path d="M40.7075 21.7075L24.7075 37.7075C24.6146 37.8005 24.5043 37.8742 24.3829 37.9246C24.2615 37.9749 24.1314 38.0008 24 38.0008C23.8686 38.0008 23.7385 37.9749 23.6171 37.9246C23.4957 37.8742 23.3854 37.8005 23.2925 37.7075L16.2925 30.7075C16.1049 30.5199 15.9995 30.2654 15.9995 30C15.9995 29.7346 16.1049 29.4801 16.2925 29.2925C16.4801 29.1049 16.7346 28.9994 17 28.9994C17.2654 28.9994 17.5199 29.1049 17.7075 29.2925L24 35.5863L39.2925 20.2925C39.4801 20.1049 39.7346 19.9995 40 19.9995C40.2654 19.9995 40.5199 20.1049 40.7075 20.2925C40.8951 20.4801 41.0006 20.7346 41.0006 21C41.0006 21.2654 40.8951 21.5199 40.7075 21.7075Z" fill="white"/>
</svg>
