<svg width="236" height="48" viewBox="0 0 236 48" fill="none" xmlns="http://www.w3.org/2000/svg">
<rect width="236" height="48" rx="12" fill="white"/>
<path d="M13.1094 30V18.7266H15.1328L18.7812 27.7266H18.8281L22.4844 18.7266H24.5V30H22.9062V21.6797H22.8516L19.4531 30H18.1562L14.7656 21.6797H14.7031V30H13.1094ZM28.9297 30.1484C27.2891 30.1484 26.1875 29.1406 26.1875 27.6641V27.6484C26.1875 26.2188 27.2969 25.3438 29.2422 25.2266L31.4844 25.0938V24.4766C31.4844 23.5703 30.8906 23.0234 29.8438 23.0234C28.8672 23.0234 28.2656 23.4844 28.125 24.1406L28.1094 24.2109H26.5156L26.5234 24.125C26.6406 22.7109 27.8672 21.625 29.8906 21.625C31.8984 21.625 33.1719 22.6875 33.1719 24.3359V30H31.4844V28.7031H31.4453C30.9688 29.5859 30.0234 30.1484 28.9297 30.1484ZM27.8906 27.625C27.8906 28.3438 28.4844 28.7969 29.3906 28.7969C30.5781 28.7969 31.4844 27.9922 31.4844 26.9219V26.2812L29.4688 26.4062C28.4531 26.4688 27.8906 26.9141 27.8906 27.6094V27.625ZM34.9531 32.7344V21.7812H36.6406V23.1953H36.6797C37.1719 22.2188 38.0781 21.625 39.25 21.625C41.3438 21.625 42.6875 23.2656 42.6875 25.8906V25.8984C42.6875 28.5156 41.3359 30.1641 39.2734 30.1641C38.1094 30.1641 37.1641 29.5703 36.6797 28.6172H36.6406V32.7344H34.9531ZM38.8125 28.7109C40.1406 28.7109 40.9688 27.6328 40.9688 25.8984V25.8906C40.9688 24.1406 40.1406 23.0703 38.8125 23.0703C37.5312 23.0703 36.6328 24.1797 36.6328 25.8906V25.8984C36.6328 27.6016 37.5391 28.7109 38.8125 28.7109ZM46.125 26.3359H45.8281V30H44.1406V21.7812H45.8281V25.1719H46.125L49.1016 21.7812H51.0938L47.6328 25.6406L51.2344 30H49.1484L46.125 26.3359ZM55.6328 30.1641C53.2188 30.1641 51.7578 28.5156 51.7578 25.9219V25.9141C51.7578 23.3438 53.2422 21.625 55.5469 21.625C57.8516 21.625 59.2656 23.2812 59.2656 25.75V26.3203H53.4453C53.4766 27.875 54.3281 28.7812 55.6719 28.7812C56.6719 28.7812 57.3359 28.2656 57.5469 27.6484L57.5703 27.5859H59.1797L59.1562 27.6719C58.8984 28.9766 57.625 30.1641 55.6328 30.1641ZM55.5547 23.0078C54.4609 23.0078 53.625 23.75 53.4688 25.125H57.5938C57.4609 23.7031 56.6562 23.0078 55.5547 23.0078ZM66.6719 21.7812V23.125H64.1016V30H62.4062V23.125H59.8359V21.7812H66.6719ZM67.9062 30V21.7812H69.5781V27.5312H69.6562L73.4297 21.7812H75.0938V30H73.4141V24.2266H73.3438L69.5703 30H67.9062ZM82.2969 30V26.4297H78.5938V30H76.9062V21.7812H78.5938V25.0938H82.2969V21.7812H83.9844V30H82.2969ZM91.2422 23.125H87.4844V30H85.7969V21.7812H91.2422V23.125ZM95.9219 30.1641C93.5625 30.1641 92.0234 28.5312 92.0234 25.8906V25.875C92.0234 23.25 93.5859 21.625 95.9219 21.625C98.2578 21.625 99.8203 23.2422 99.8203 25.875V25.8906C99.8203 28.5391 98.2734 30.1641 95.9219 30.1641ZM95.9297 28.75C97.25 28.75 98.1016 27.7031 98.1016 25.8906V25.875C98.1016 24.0781 97.2344 23.0391 95.9219 23.0391C94.6172 23.0391 93.75 24.0781 93.75 25.875V25.8906C93.75 27.7109 94.6094 28.75 95.9297 28.75ZM101.266 30V21.7812H105C106.602 21.7812 107.57 22.5859 107.57 23.8906V23.9062C107.57 24.7578 106.961 25.5312 106.172 25.6797V25.7422C107.234 25.8828 107.938 26.6172 107.938 27.625V27.6406C107.938 29.0781 106.828 30 105.047 30H101.266ZM102.938 25.1719H104.477C105.43 25.1719 105.898 24.8203 105.898 24.0938V24.0781C105.898 23.3984 105.461 23.0312 104.648 23.0312H102.938V25.1719ZM102.938 28.75H104.734C105.688 28.75 106.203 28.3516 106.203 27.5703V27.5547C106.203 26.7656 105.648 26.3984 104.539 26.3984H102.938V28.75ZM111.852 30.1484C110.211 30.1484 109.109 29.1406 109.109 27.6641V27.6484C109.109 26.2188 110.219 25.3438 112.164 25.2266L114.406 25.0938V24.4766C114.406 23.5703 113.812 23.0234 112.766 23.0234C111.789 23.0234 111.188 23.4844 111.047 24.1406L111.031 24.2109H109.438L109.445 24.125C109.562 22.7109 110.789 21.625 112.812 21.625C114.82 21.625 116.094 22.6875 116.094 24.3359V30H114.406V28.7031H114.367C113.891 29.5859 112.945 30.1484 111.852 30.1484ZM110.812 27.625C110.812 28.3438 111.406 28.7969 112.312 28.7969C113.5 28.7969 114.406 27.9922 114.406 26.9219V26.2812L112.391 26.4062C111.375 26.4688 110.812 26.9141 110.812 27.6094V27.625ZM122.562 30V27.1797H121.242L119.258 30H117.336L119.578 26.8906C118.438 26.5547 117.734 25.7031 117.734 24.5625V24.5469C117.734 22.8438 118.984 21.7812 120.906 21.7812H124.242V30H122.562ZM120.992 25.875H122.562V23.1172H120.992C120.031 23.1172 119.445 23.6484 119.445 24.5391V24.5547C119.445 25.3281 120.039 25.875 120.992 25.875ZM131.281 26.3359H130.984V30H129.297V21.7812H130.984V25.1719H131.281L134.258 21.7812H136.25L132.789 25.6406L136.391 30H134.305L131.281 26.3359ZM139.695 30.1484C138.055 30.1484 136.953 29.1406 136.953 27.6641V27.6484C136.953 26.2188 138.062 25.3438 140.008 25.2266L142.25 25.0938V24.4766C142.25 23.5703 141.656 23.0234 140.609 23.0234C139.633 23.0234 139.031 23.4844 138.891 24.1406L138.875 24.2109H137.281L137.289 24.125C137.406 22.7109 138.633 21.625 140.656 21.625C142.664 21.625 143.938 22.6875 143.938 24.3359V30H142.25V28.7031H142.211C141.734 29.5859 140.789 30.1484 139.695 30.1484ZM138.656 27.625C138.656 28.3438 139.25 28.7969 140.156 28.7969C141.344 28.7969 142.25 27.9922 142.25 26.9219V26.2812L140.234 26.4062C139.219 26.4688 138.656 26.9141 138.656 27.6094V27.625ZM147.359 30H145.719V21.7812H147.852L150.469 27.8047H150.531L153.172 21.7812H155.25V30H153.602V24.2969H153.547L151.094 29.6797H149.859L147.414 24.2969H147.359V30ZM157.062 30V21.7812H164.07V30H162.375V23.125H158.75V30H157.062ZM168.305 30.1484C166.664 30.1484 165.562 29.1406 165.562 27.6641V27.6484C165.562 26.2188 166.672 25.3438 168.617 25.2266L170.859 25.0938V24.4766C170.859 23.5703 170.266 23.0234 169.219 23.0234C168.242 23.0234 167.641 23.4844 167.5 24.1406L167.484 24.2109H165.891L165.898 24.125C166.016 22.7109 167.242 21.625 169.266 21.625C171.273 21.625 172.547 22.6875 172.547 24.3359V30H170.859V28.7031H170.82C170.344 29.5859 169.398 30.1484 168.305 30.1484ZM167.266 27.625C167.266 28.3438 167.859 28.7969 168.766 28.7969C169.953 28.7969 170.859 27.9922 170.859 26.9219V26.2812L168.844 26.4062C167.828 26.4688 167.266 26.9141 167.266 27.6094V27.625ZM179.719 30V26.4297H176.016V30H174.328V21.7812H176.016V25.0938H179.719V21.7812H181.406V30H179.719ZM183.219 30V21.7812H184.891V27.5312H184.969L188.742 21.7812H190.406V30H188.727V24.2266H188.656L184.883 30H183.219ZM196.906 30V27.1797H195.586L193.602 30H191.68L193.922 26.8906C192.781 26.5547 192.078 25.7031 192.078 24.5625V24.5469C192.078 22.8438 193.328 21.7812 195.25 21.7812H198.586V30H196.906ZM195.336 25.875H196.906V23.1172H195.336C194.375 23.1172 193.789 23.6484 193.789 24.5391V24.5547C193.789 25.3281 194.383 25.875 195.336 25.875Z" fill="#1E1B1B"/>
<path d="M221.354 22.3538L216.354 27.3538C216.307 27.4003 216.252 27.4371 216.192 27.4623C216.131 27.4875 216.066 27.5004 216 27.5004C215.934 27.5004 215.869 27.4875 215.809 27.4623C215.748 27.4371 215.693 27.4003 215.646 27.3538L210.646 22.3538C210.552 22.2599 210.5 22.1327 210.5 22C210.5 21.8673 210.552 21.7401 210.646 21.6463C210.74 21.5524 210.867 21.4997 211 21.4997C211.133 21.4997 211.26 21.5524 211.354 21.6463L216 26.2931L220.646 21.6463C220.693 21.5998 220.748 21.563 220.809 21.5378C220.869 21.5127 220.934 21.4997 221 21.4997C221.066 21.4997 221.131 21.5127 221.191 21.5378C221.252 21.563 221.307 21.5998 221.354 21.6463C221.4 21.6927 221.437 21.7479 221.462 21.8086C221.487 21.8693 221.5 21.9343 221.5 22C221.5 22.0657 221.487 22.1308 221.462 22.1915C221.437 22.2522 221.4 22.3073 221.354 22.3538Z" fill="#1E1B1B"/>
</svg>
