<svg width="240" height="44" viewBox="0 0 240 44" fill="none" xmlns="http://www.w3.org/2000/svg">
<rect width="240" height="44" rx="12" fill="#F5F5F5"/>
<path d="M70 13.875C68.393 13.875 66.8221 14.3515 65.486 15.2443C64.1498 16.1371 63.1084 17.406 62.4935 18.8907C61.8785 20.3753 61.7176 22.009 62.0311 23.5851C62.3446 25.1612 63.1185 26.6089 64.2548 27.7452C65.3911 28.8815 66.8388 29.6554 68.4149 29.9689C69.991 30.2824 71.6247 30.1215 73.1093 29.5065C74.594 28.8916 75.8629 27.8502 76.7557 26.514C77.6485 25.1779 78.125 23.607 78.125 22C78.1227 19.8458 77.266 17.7805 75.7427 16.2573C74.2195 14.734 72.1542 13.8773 70 13.875ZM70 28.875C68.6403 28.875 67.311 28.4718 66.1805 27.7164C65.0499 26.9609 64.1687 25.8872 63.6483 24.6309C63.128 23.3747 62.9918 21.9924 63.2571 20.6588C63.5224 19.3251 64.1772 18.1001 65.1386 17.1386C66.1001 16.1772 67.3251 15.5224 68.6588 15.2571C69.9924 14.9918 71.3747 15.128 72.631 15.6483C73.8872 16.1687 74.9609 17.0499 75.7164 18.1805C76.4718 19.311 76.875 20.6403 76.875 22C76.8729 23.8227 76.1479 25.5702 74.8591 26.8591C73.5702 28.1479 71.8227 28.8729 70 28.875ZM73.7688 21.4703L68.7688 18.3453C68.6742 18.2862 68.5655 18.2535 68.454 18.2505C68.3425 18.2476 68.2322 18.2745 68.1347 18.3286C68.0371 18.3826 67.9558 18.4618 67.8991 18.5579C67.8425 18.654 67.8126 18.7635 67.8125 18.875V25.125C67.8126 25.2365 67.8425 25.346 67.8991 25.4421C67.9558 25.5382 68.0371 25.6174 68.1347 25.6714C68.2322 25.7255 68.3425 25.7524 68.454 25.7495C68.5655 25.7465 68.6742 25.7138 68.7688 25.6547L73.7688 22.5297C73.8585 22.4735 73.9325 22.3954 73.9838 22.3027C74.0351 22.2101 74.062 22.1059 74.062 22C74.062 21.8941 74.0351 21.7899 73.9838 21.6973C73.9325 21.6046 73.8585 21.5265 73.7688 21.4703ZM69.0625 23.9977V20.0023L72.2586 22L69.0625 23.9977Z" fill="#464C52"/>
<path d="M91.2031 22.4766V21.0078H92.7578C94.1016 21.0078 94.9688 20.2656 94.9688 19.1875V19.1719C94.9688 18.1719 94.1875 17.5703 92.8359 17.5703C91.5078 17.5703 90.6875 18.1406 90.5547 19.1094L90.5469 19.2188H88.8672L88.875 19.1094C88.9922 17.2031 90.5312 16.0391 92.8906 16.0391C95.1562 16.0391 96.7031 17.2422 96.7031 18.9844V19C96.7031 20.25 95.8594 21.2969 94.6094 21.5859V21.6484C96.1172 21.8359 97.0469 22.9062 97.0469 24.4219V24.4375C97.0469 26.2969 95.2656 27.6875 92.8516 27.6875C90.3594 27.6875 88.7031 26.4219 88.5859 24.5625L88.5781 24.4688H90.2891L90.2969 24.5312C90.4219 25.5703 91.3672 26.1562 92.8516 26.1562C94.3047 26.1562 95.2578 25.4453 95.2578 24.3594V24.3438C95.2578 23.1719 94.3516 22.4766 92.8047 22.4766H91.2031ZM97.8203 27.5L101.922 16.2266H103.812L107.906 27.5H106.07L105.039 24.4531H100.695L99.6562 27.5H97.8203ZM102.852 18.0938L101.164 23.0469H104.562L102.883 18.0938H102.852ZM118.477 27.5H116.727V17.7344H111.055V27.5H109.305V16.2266H118.477V27.5ZM122.039 27.5859C121.695 27.5859 121.391 27.5312 121.289 27.4844V25.9844C121.445 26.0234 121.68 26.0469 121.938 26.0469C122.719 26.0469 123.258 25.7422 123.688 24.9922L119.875 16.2266H121.734L124.555 23.1562H124.672L127.406 16.2266H129.234L125.781 24.2734C124.742 26.6953 123.82 27.5859 122.039 27.5859ZM134.914 27.6875C131.719 27.6875 129.688 25.4375 129.688 21.8594V21.8516C129.688 18.2734 131.719 16.0391 134.914 16.0391C137.398 16.0391 139.266 17.5703 139.625 19.7969L139.633 19.8672H137.898L137.852 19.7109C137.477 18.3906 136.43 17.5859 134.914 17.5859C132.82 17.5859 131.477 19.2422 131.477 21.8516V21.8594C131.477 24.4688 132.828 26.1406 134.914 26.1406C136.414 26.1406 137.453 25.3594 137.883 23.9297L137.898 23.8594H139.641L139.625 23.9375C139.273 26.1797 137.406 27.6875 134.914 27.6875ZM143.484 27.5V17.7344H140.031V16.2266H148.68V17.7344H145.234V27.5H143.484ZM150.258 27.5V16.2266H151.992V24.625H152.031L157.836 16.2266H159.453V27.5H157.719V19.1094H157.68L151.867 27.5H150.258ZM164.484 27.5V17.7344H161.031V16.2266H169.68V17.7344H166.234V27.5H164.484ZM171.258 27.5V16.2266H173.008V20.2656H175.555C177.773 20.2656 179.328 21.7422 179.328 23.875V23.8906C179.328 26.0234 177.805 27.5 175.609 27.5H171.258ZM175.148 21.7422H173.008V26.0156H175.148C176.664 26.0156 177.539 25.25 177.539 23.8906V23.875C177.539 22.5078 176.656 21.7422 175.148 21.7422Z" fill="#464C52"/>
</svg>
