<svg width="240" height="44" viewBox="0 0 240 44" fill="none" xmlns="http://www.w3.org/2000/svg">
<rect width="240" height="44" rx="12" fill="#5B5DFF"/>
<path d="M59.375 19.2406C59.3755 19.0764 59.3434 18.9137 59.2805 18.762C59.2176 18.6103 59.1251 18.4727 59.0086 18.357L53.6429 12.9906C53.5269 12.8745 53.3891 12.7824 53.2374 12.7196C53.0857 12.6567 52.9231 12.6244 52.759 12.6244C52.5948 12.6244 52.4322 12.6567 52.2805 12.7196C52.1289 12.7824 51.991 12.8745 51.875 12.9906L49.6539 15.2117L45.1226 16.9125C44.9167 16.9893 44.7345 17.1188 44.5944 17.2882C44.4543 17.4575 44.3611 17.6607 44.3242 17.8773L42.5086 28.7719C42.4936 28.8614 42.4983 28.9532 42.5224 29.0407C42.5464 29.1283 42.5893 29.2095 42.648 29.2788C42.7066 29.3481 42.7797 29.4038 42.8621 29.442C42.9445 29.4802 43.0342 29.5 43.125 29.5C43.1595 29.4998 43.194 29.497 43.2281 29.4914L54.1218 27.6758C54.3383 27.6397 54.5413 27.5472 54.7107 27.4077C54.8801 27.2683 55.0097 27.0867 55.0867 26.8812L56.7875 22.35L59.0086 20.125C59.1252 20.0092 59.2177 19.8714 59.2806 19.7196C59.3435 19.5678 59.3756 19.4049 59.375 19.2406ZM53.9164 26.443L44.9468 27.9375L48.6476 24.2367C49.1099 24.4865 49.6466 24.5616 50.1596 24.4483C50.6726 24.3349 51.1277 24.0407 51.4417 23.6194C51.7557 23.1981 51.9075 22.6779 51.8694 22.1539C51.8314 21.6298 51.606 21.137 51.2345 20.7655C50.863 20.394 50.3701 20.1686 49.8461 20.1305C49.3221 20.0925 48.8018 20.2443 48.3805 20.5583C47.9593 20.8722 47.665 21.3273 47.5517 21.8404C47.4383 22.3534 47.5134 22.8901 47.7633 23.3523L44.0625 27.0547L45.557 18.0828L49.8437 16.4758L55.5234 22.1562L53.9164 26.443ZM48.75 22.3125C48.75 22.1271 48.805 21.9458 48.908 21.7916C49.011 21.6375 49.1574 21.5173 49.3287 21.4463C49.5 21.3754 49.6885 21.3568 49.8704 21.393C50.0522 21.4292 50.2193 21.5185 50.3504 21.6496C50.4815 21.7807 50.5708 21.9477 50.607 22.1296C50.6431 22.3114 50.6246 22.4999 50.5536 22.6712C50.4827 22.8426 50.3625 22.989 50.2083 23.092C50.0541 23.195 49.8729 23.25 49.6875 23.25C49.4388 23.25 49.2004 23.1512 49.0246 22.9754C48.8487 22.7996 48.75 22.5611 48.75 22.3125ZM56.25 21.1156L50.8836 15.75L52.7586 13.875L58.125 19.2406L56.25 21.1156Z" fill="white"/>
<path d="M69.1094 27.5V16.2266H73.3047C75.5234 16.2266 77.0469 17.7109 77.0469 19.9219V19.9375C77.0469 22.1406 75.5234 23.6484 73.3047 23.6484H70.8594V27.5H69.1094ZM72.875 17.7031H70.8594V22.1797H72.875C74.3906 22.1797 75.2656 21.3594 75.2656 19.9453V19.9297C75.2656 18.5234 74.3906 17.7031 72.875 17.7031ZM78.7344 27.5V16.2266H85.8906V17.7344H80.4844V21.0234H85.6016V22.4922H80.4844V25.9922H85.8906V27.5H78.7344ZM88.5625 29.7266H86.9531V25.9922H87.7734C88.5781 25.5156 88.8594 24.5547 88.9453 23.0625L89.3594 16.2266H96.7031V25.9922H98.1094V29.7266H96.5078V27.5H88.5625V29.7266ZM90.5703 23.1484C90.4922 24.4219 90.3359 25.2891 89.7969 25.9297V25.9922H94.9531V17.7344H90.9141L90.5703 23.1484ZM98.8047 27.5L102.906 16.2266H104.797L108.891 27.5H107.055L106.023 24.4531H101.68L100.641 27.5H98.8047ZM103.836 18.0938L102.148 23.0469H105.547L103.867 18.0938H103.836ZM112.039 27.5H110.289V16.2266H112.039V21.0703H112.477L116.68 16.2266H118.766L113.945 21.5938L119.234 27.5H116.969L112.477 22.4453H112.039V27.5ZM122.766 27.5V17.7344H119.312V16.2266H127.961V17.7344H124.516V27.5H122.766ZM129.539 27.5V16.2266H131.273V24.625H131.312L137.117 16.2266H138.734V27.5H137V19.1094H136.961L131.148 27.5H129.539ZM140.969 27.5V16.2266H145.164C147.383 16.2266 148.906 17.7109 148.906 19.9219V19.9375C148.906 22.1406 147.383 23.6484 145.164 23.6484H142.719V27.5H140.969ZM144.734 17.7031H142.719V22.1797H144.734C146.25 22.1797 147.125 21.3594 147.125 19.9453V19.9297C147.125 18.5234 146.25 17.7031 144.734 17.7031ZM155.469 27.6875C152.219 27.6875 150.188 25.4531 150.188 21.8672V21.8516C150.188 18.2734 152.227 16.0391 155.469 16.0391C158.719 16.0391 160.75 18.2812 160.75 21.8516V21.8672C160.75 25.4453 158.727 27.6875 155.469 27.6875ZM155.469 26.1406C157.633 26.1406 158.961 24.4688 158.961 21.8672V21.8516C158.961 19.2344 157.609 17.5859 155.469 17.5859C153.336 17.5859 151.969 19.2266 151.969 21.8516V21.8672C151.969 24.4922 153.328 26.1406 155.469 26.1406ZM162.562 27.5V16.2266H167.062C169.062 16.2266 170.383 17.3438 170.383 19.0469V19.0625C170.383 20.25 169.477 21.3516 168.289 21.5234V21.5547C169.891 21.7188 170.93 22.8203 170.93 24.3047V24.3203C170.93 26.2969 169.484 27.5 167.086 27.5H162.562ZM166.641 17.6562H164.312V21.0312H166.258C167.797 21.0312 168.633 20.4062 168.633 19.2734V19.2578C168.633 18.2266 167.906 17.6562 166.641 17.6562ZM166.609 22.3828H164.312V26.0703H166.734C168.297 26.0703 169.141 25.4375 169.141 24.2344V24.2188C169.141 23.0078 168.281 22.3828 166.609 22.3828ZM171.664 27.5L175.766 16.2266H177.656L181.75 27.5H179.914L178.883 24.4531H174.539L173.5 27.5H171.664ZM176.695 18.0938L175.008 23.0469H178.406L176.727 18.0938H176.695ZM184.578 27.5V17.7344H181.125V16.2266H189.773V17.7344H186.328V27.5H184.578ZM191.352 27.5V16.2266H193.102V20.2656H195.648C197.867 20.2656 199.422 21.7422 199.422 23.875V23.8906C199.422 26.0234 197.898 27.5 195.703 27.5H191.352ZM195.242 21.7422H193.102V26.0156H195.242C196.758 26.0156 197.633 25.25 197.633 23.8906V23.875C197.633 22.5078 196.75 21.7422 195.242 21.7422Z" fill="white"/>
</svg>
