<svg width="40" height="41" viewBox="0 0 40 41" fill="none" xmlns="http://www.w3.org/2000/svg">
<g clip-path="url(#clip0_17_161)">
<mask id="mask0_17_161" style="mask-type:luminance" maskUnits="userSpaceOnUse" x="0" y="0" width="40" height="41">
<path d="M40 0.5H0V40.5H40V0.5Z" fill="white"/>
</mask>
<g mask="url(#mask0_17_161)">
<path d="M40 0.5H0V40.5H40V0.5Z" fill="#FF0032"/>
<path d="M12.1683 3.5762L9.22851 9.68156L6.28871 3.5762H3.08081V12.8048H5.32916V6.20085L8.20311 11.7794H10.2539L13.1278 6.20085V12.8048H15.3809V3.5762H12.1683Z" fill="white"/>
<path d="M26.6509 3.5762V5.41534H30.6678L30.6584 12.8048H32.9068L32.9162 5.41534H36.9378V3.5762H26.6509Z" fill="white"/>
<path d="M34.6848 34.3429C34.6284 34.7098 34.4826 35.0155 34.2427 35.2413C34.0169 35.4577 33.7159 35.6082 33.3396 35.6976C32.968 35.7822 32.427 35.834 31.8485 35.834C31.2699 35.834 30.7243 35.7587 30.2775 35.6035C29.8447 35.4577 29.5014 35.199 29.2615 34.8368C29.0169 34.4746 28.8946 33.9478 28.8946 33.2799V32.3344C28.8946 31.6618 29.0169 31.1397 29.2615 30.7775C29.5014 30.4153 29.8447 30.1613 30.2775 30.0108C30.7243 29.8603 31.2511 29.7803 31.8485 29.7803C32.4459 29.7803 32.968 29.8321 33.3396 29.9168C33.7159 30.0014 34.0169 30.1566 34.2427 30.373C34.4778 30.6035 34.6284 30.9045 34.6848 31.2714H36.9379C36.8767 30.5094 36.618 29.8603 36.1665 29.3429C35.7525 28.8678 35.1834 28.5198 34.4731 28.3081C33.7817 28.1011 32.8786 27.993 31.8532 27.993C30.7761 27.993 29.84 28.1482 29.0686 28.4539C28.2878 28.7644 27.6858 29.2818 27.2671 29.992C26.8673 30.674 26.6604 31.5818 26.6462 32.6966V32.8001L26.7685 32.8048L26.6462 32.8095V32.913C26.6604 34.0278 26.8673 34.9356 27.2671 35.6176C27.681 36.3279 28.2878 36.8453 29.0686 37.1557C29.8353 37.4614 30.7714 37.6167 31.8532 37.6167C32.9303 37.6167 33.7864 37.5085 34.4731 37.3015C35.1834 37.0898 35.7525 36.7418 36.1665 36.2667C36.618 35.7493 36.8767 35.1002 36.9379 34.3382L34.6848 34.3429Z" fill="white"/>
</g>
</g>
<defs>
<clipPath id="clip0_17_161">
<rect width="40" height="40" fill="white" transform="translate(0 0.5)"/>
</clipPath>
</defs>
</svg>
