<svg width="40" height="40" viewBox="0 0 40 40" fill="none" xmlns="http://www.w3.org/2000/svg">
<g clip-path="url(#clip0_217_3405)">
<mask id="mask0_217_3405" style="mask-type:luminance" maskUnits="userSpaceOnUse" x="0" y="0" width="40" height="40">
<path d="M40 0H0V40H40V0Z" fill="white"/>
</mask>
<g mask="url(#mask0_217_3405)">
<path d="M40 0H0V40H40V0Z" fill="#FF0032"/>
<path d="M12.1684 3.0762L9.22861 9.18156L6.28882 3.0762H3.08092V12.3048H5.32927V5.70085L8.20321 11.2794H10.254L13.128 5.70085V12.3048H15.381V3.0762H12.1684Z" fill="white"/>
<path d="M26.651 3.0762V4.91534H30.6679L30.6585 12.3048H32.9069L32.9163 4.91534H36.9379V3.0762H26.651Z" fill="white"/>
<path d="M34.6849 33.8429C34.6284 34.2098 34.4826 34.5155 34.2427 34.7413C34.0169 34.9577 33.7159 35.1082 33.3396 35.1976C32.968 35.2822 32.4271 35.334 31.8485 35.334C31.27 35.334 30.7244 35.2587 30.2775 35.1035C29.8448 34.9577 29.5014 34.699 29.2615 34.3368C29.0169 33.9746 28.8946 33.4478 28.8946 32.7799V31.8344C28.8946 31.1618 29.0169 30.6397 29.2615 30.2775C29.5014 29.9153 29.8448 29.6613 30.2775 29.5108C30.7244 29.3603 31.2512 29.2803 31.8485 29.2803C32.4459 29.2803 32.968 29.3321 33.3396 29.4168C33.7159 29.5014 34.0169 29.6566 34.2427 29.873C34.4779 30.1035 34.6284 30.4045 34.6849 30.7714H36.9379C36.8768 30.0094 36.6181 29.3603 36.1665 28.8429C35.7526 28.3678 35.1834 28.0198 34.4732 27.8081C33.7818 27.6011 32.8786 27.493 31.8533 27.493C30.7761 27.493 29.8401 27.6482 29.0687 27.9539C28.2879 28.2644 27.6858 28.7818 27.2672 29.492C26.8674 30.174 26.6604 31.0819 26.6463 32.1966V32.3001L26.7686 32.3048L26.6463 32.3095V32.413C26.6604 33.5278 26.8674 34.4356 27.2672 35.1176C27.6811 35.8279 28.2879 36.3453 29.0687 36.6557C29.8354 36.9614 30.7714 37.1167 31.8533 37.1167C32.9304 37.1167 33.7865 37.0085 34.4732 36.8015C35.1834 36.5898 35.7526 36.2418 36.1665 35.7667C36.6181 35.2493 36.8768 34.6002 36.9379 33.8382L34.6849 33.8429Z" fill="white"/>
</g>
</g>
<defs>
<clipPath id="clip0_217_3405">
<rect width="40" height="40" fill="white"/>
</clipPath>
</defs>
</svg>
