<svg width="40" height="41" viewBox="0 0 40 41" fill="none" xmlns="http://www.w3.org/2000/svg">
<path d="M26.25 35.5C26.25 35.8315 26.1184 36.1495 25.8839 36.3839C25.6495 36.6183 25.3316 36.75 25 36.75H15C14.6685 36.75 14.3506 36.6183 14.1162 36.3839C13.8817 36.1495 13.75 35.8315 13.75 35.5C13.75 35.1685 13.8817 34.8505 14.1162 34.6161C14.3506 34.3817 14.6685 34.25 15 34.25H25C25.3316 34.25 25.6495 34.3817 25.8839 34.6161C26.1184 34.8505 26.25 35.1685 26.25 35.5ZM34.6641 30.5C34.4472 30.8821 34.1324 31.1993 33.7519 31.4191C33.3715 31.6388 32.9394 31.753 32.5 31.75H7.50005C7.06057 31.7494 6.62902 31.633 6.24888 31.4124C5.86875 31.1919 5.55346 30.8751 5.33481 30.4938C5.11616 30.1126 5.00186 29.6805 5.00343 29.241C5.00501 28.8016 5.12241 28.3703 5.3438 27.9906C6.21098 26.4969 7.50005 22.2719 7.50005 16.75C7.50005 13.4348 8.81701 10.2554 11.1612 7.91117C13.5054 5.56696 16.6848 4.25 20 4.25C23.3153 4.25 26.4947 5.56696 28.8389 7.91117C31.1831 10.2554 32.5 13.4348 32.5 16.75C32.5 22.2703 33.7907 26.4969 34.6579 27.9906C34.8815 28.3708 34.9997 28.8036 35.0006 29.2447C35.0014 29.6857 34.8847 30.119 34.6625 30.5H34.6641ZM32.5 29.25C31.2922 27.1766 30 22.3828 30 16.75C30 14.0978 28.9465 11.5543 27.0711 9.67893C25.1958 7.80357 22.6522 6.75 20 6.75C17.3479 6.75 14.8043 7.80357 12.929 9.67893C11.0536 11.5543 10 14.0978 10 16.75C10 22.3844 8.7063 27.1781 7.50005 29.25H32.5Z" fill="#0D2325"/>
</svg>
