<svg width="219" height="48" viewBox="0 0 219 48" fill="none" xmlns="http://www.w3.org/2000/svg">
<rect width="219" height="48" rx="12" fill="white"/>
<path d="M45 25.5V31.5C45 31.6989 44.921 31.8897 44.7803 32.0303C44.6397 32.171 44.4489 32.25 44.25 32.25H27.75C27.5511 32.25 27.3603 32.171 27.2197 32.0303C27.079 31.8897 27 31.6989 27 31.5V25.5C27 25.3011 27.079 25.1103 27.2197 24.9697C27.3603 24.829 27.5511 24.75 27.75 24.75C27.9489 24.75 28.1397 24.829 28.2803 24.9697C28.421 25.1103 28.5 25.3011 28.5 25.5V30.75H43.5V25.5C43.5 25.3011 43.579 25.1103 43.7197 24.9697C43.8603 24.829 44.0511 24.75 44.25 24.75C44.4489 24.75 44.6397 24.829 44.7803 24.9697C44.921 25.1103 45 25.3011 45 25.5ZM35.4694 26.0306C35.539 26.1004 35.6217 26.1557 35.7128 26.1934C35.8038 26.2312 35.9014 26.2506 36 26.2506C36.0986 26.2506 36.1962 26.2312 36.2872 26.1934C36.3783 26.1557 36.461 26.1004 36.5306 26.0306L40.2806 22.2806C40.3503 22.2109 40.4056 22.1282 40.4433 22.0372C40.481 21.9461 40.5004 21.8485 40.5004 21.75C40.5004 21.6515 40.481 21.5539 40.4433 21.4628C40.4056 21.3718 40.3503 21.2891 40.2806 21.2194C40.2109 21.1497 40.1282 21.0944 40.0372 21.0567C39.9461 21.019 39.8485 20.9996 39.75 20.9996C39.6515 20.9996 39.5539 21.019 39.4628 21.0567C39.3718 21.0944 39.2891 21.1497 39.2194 21.2194L36.75 23.6897V15C36.75 14.8011 36.671 14.6103 36.5303 14.4697C36.3897 14.329 36.1989 14.25 36 14.25C35.8011 14.25 35.6103 14.329 35.4697 14.4697C35.329 14.6103 35.25 14.8011 35.25 15V23.6897L32.7806 21.2194C32.6399 21.0786 32.449 20.9996 32.25 20.9996C32.051 20.9996 31.8601 21.0786 31.7194 21.2194C31.5786 21.3601 31.4996 21.551 31.4996 21.75C31.4996 21.949 31.5786 22.1399 31.7194 22.2806L35.4694 26.0306Z" fill="#1E1B1B"/>
<path d="M57.1172 29.5V18.2266H58.8516V26.625H58.8906L64.6953 18.2266H66.3125V29.5H64.5781V21.1094H64.5391L58.7266 29.5H57.1172ZM68.5469 29.5V18.2266H70.5703L74.2188 27.2266H74.2656L77.9219 18.2266H79.9375V29.5H78.3438V21.1797H78.2891L74.8906 29.5H73.5938L70.2031 21.1797H70.1406V29.5H68.5469ZM91.3359 29.5H89.5859V19.7344H83.9141V29.5H82.1641V18.2266H91.3359V29.5ZM98.4375 29.6875C95.1875 29.6875 93.1562 27.4531 93.1562 23.8672V23.8516C93.1562 20.2734 95.1953 18.0391 98.4375 18.0391C101.688 18.0391 103.719 20.2812 103.719 23.8516V23.8672C103.719 27.4453 101.695 29.6875 98.4375 29.6875ZM98.4375 28.1406C100.602 28.1406 101.93 26.4688 101.93 23.8672V23.8516C101.93 21.2344 100.578 19.5859 98.4375 19.5859C96.3047 19.5859 94.9375 21.2266 94.9375 23.8516V23.8672C94.9375 26.4922 96.2969 28.1406 98.4375 28.1406ZM105.531 29.5V18.2266H109.727C111.945 18.2266 113.469 19.7109 113.469 21.9219V21.9375C113.469 24.1406 111.945 25.6484 109.727 25.6484H107.281V29.5H105.531ZM109.297 19.7031H107.281V24.1797H109.297C110.812 24.1797 111.688 23.3594 111.688 21.9453V21.9297C111.688 20.5234 110.812 19.7031 109.297 19.7031ZM117.75 29.5V19.7344H114.297V18.2266H122.945V19.7344H119.5V29.5H117.75ZM124.523 29.5V18.2266H126.258V26.625H126.297L132.102 18.2266H133.719V29.5H131.984V21.1094H131.945L126.133 29.5H124.523ZM135.953 29.5V18.2266H140.148C142.367 18.2266 143.891 19.7109 143.891 21.9219V21.9375C143.891 24.1406 142.367 25.6484 140.148 25.6484H137.703V29.5H135.953ZM139.719 19.7031H137.703V24.1797H139.719C141.234 24.1797 142.109 23.3594 142.109 21.9453V21.9297C142.109 20.5234 141.234 19.7031 139.719 19.7031ZM150.453 29.6875C147.203 29.6875 145.172 27.4531 145.172 23.8672V23.8516C145.172 20.2734 147.211 18.0391 150.453 18.0391C153.703 18.0391 155.734 20.2812 155.734 23.8516V23.8672C155.734 27.4453 153.711 29.6875 150.453 29.6875ZM150.453 28.1406C152.617 28.1406 153.945 26.4688 153.945 23.8672V23.8516C153.945 21.2344 152.594 19.5859 150.453 19.5859C148.32 19.5859 146.953 21.2266 146.953 23.8516V23.8672C146.953 26.4922 148.312 28.1406 150.453 28.1406ZM157.547 29.5V18.2266H162.047C164.047 18.2266 165.367 19.3438 165.367 21.0469V21.0625C165.367 22.25 164.461 23.3516 163.273 23.5234V23.5547C164.875 23.7188 165.914 24.8203 165.914 26.3047V26.3203C165.914 28.2969 164.469 29.5 162.07 29.5H157.547ZM161.625 19.6562H159.297V23.0312H161.242C162.781 23.0312 163.617 22.4062 163.617 21.2734V21.2578C163.617 20.2266 162.891 19.6562 161.625 19.6562ZM161.594 24.3828H159.297V28.0703H161.719C163.281 28.0703 164.125 27.4375 164.125 26.2344V26.2188C164.125 25.0078 163.266 24.3828 161.594 24.3828ZM166.648 29.5L170.75 18.2266H172.641L176.734 29.5H174.898L173.867 26.4531H169.523L168.484 29.5H166.648ZM171.68 20.0938L169.992 25.0469H173.391L171.711 20.0938H171.68ZM179.562 29.5V19.7344H176.109V18.2266H184.758V19.7344H181.312V29.5H179.562ZM186.336 29.5V18.2266H188.086V22.2656H190.633C192.852 22.2656 194.406 23.7422 194.406 25.875V25.8906C194.406 28.0234 192.883 29.5 190.688 29.5H186.336ZM190.227 23.7422H188.086V28.0156H190.227C191.742 28.0156 192.617 27.25 192.617 25.8906V25.875C192.617 24.5078 191.734 23.7422 190.227 23.7422Z" fill="#1E1B1B"/>
</svg>
