<svg width="177" height="48" viewBox="0 0 177 48" fill="none" xmlns="http://www.w3.org/2000/svg">
<rect width="177" height="48" rx="12" fill="#FF0032"/>
<path d="M45 24C45 24.1989 44.921 24.3897 44.7803 24.5303C44.6397 24.671 44.4489 24.75 44.25 24.75H36.75V32.25C36.75 32.4489 36.671 32.6397 36.5303 32.7803C36.3897 32.921 36.1989 33 36 33C35.8011 33 35.6103 32.921 35.4697 32.7803C35.329 32.6397 35.25 32.4489 35.25 32.25V24.75H27.75C27.5511 24.75 27.3603 24.671 27.2197 24.5303C27.079 24.3897 27 24.1989 27 24C27 23.8011 27.079 23.6103 27.2197 23.4697C27.3603 23.329 27.5511 23.25 27.75 23.25H35.25V15.75C35.25 15.5511 35.329 15.3603 35.4697 15.2197C35.6103 15.079 35.8011 15 36 15C36.1989 15 36.3897 15.079 36.5303 15.2197C36.671 15.3603 36.75 15.5511 36.75 15.75V23.25H44.25C44.4489 23.25 44.6397 23.329 44.7803 23.4697C44.921 23.6103 45 23.8011 45 24Z" fill="white"/>
<path d="M57.1094 29.5V18.2266H58.8594V22.9922H64.6484V18.2266H66.3984V29.5H64.6484V24.5078H58.8594V29.5H57.1094ZM73.5 29.6875C70.25 29.6875 68.2188 27.4531 68.2188 23.8672V23.8516C68.2188 20.2734 70.2578 18.0391 73.5 18.0391C76.75 18.0391 78.7812 20.2812 78.7812 23.8516V23.8672C78.7812 27.4453 76.7578 29.6875 73.5 29.6875ZM73.5 28.1406C75.6641 28.1406 76.9922 26.4688 76.9922 23.8672V23.8516C76.9922 21.2344 75.6406 19.5859 73.5 19.5859C71.3672 19.5859 70 21.2266 70 23.8516V23.8672C70 26.4922 71.3594 28.1406 73.5 28.1406ZM80.5938 29.5V18.2266H85.0938C87.0938 18.2266 88.4141 19.3438 88.4141 21.0469V21.0625C88.4141 22.25 87.5078 23.3516 86.3203 23.5234V23.5547C87.9219 23.7188 88.9609 24.8203 88.9609 26.3047V26.3203C88.9609 28.2969 87.5156 29.5 85.1172 29.5H80.5938ZM84.6719 19.6562H82.3438V23.0312H84.2891C85.8281 23.0312 86.6641 22.4062 86.6641 21.2734V21.2578C86.6641 20.2266 85.9375 19.6562 84.6719 19.6562ZM84.6406 24.3828H82.3438V28.0703H84.7656C86.3281 28.0703 87.1719 27.4375 87.1719 26.2344V26.2188C87.1719 25.0078 86.3125 24.3828 84.6406 24.3828ZM89.6953 29.5L93.7969 18.2266H95.6875L99.7812 29.5H97.9453L96.9141 26.4531H92.5703L91.5312 29.5H89.6953ZM94.7266 20.0938L93.0391 25.0469H96.4375L94.7578 20.0938H94.7266ZM109.234 29.5H107.492V25.2578H105.453L102.5 29.5H100.492L103.633 25.0312C102.086 24.6328 101.055 23.3984 101.055 21.7578V21.7422C101.055 19.6641 102.586 18.2266 104.844 18.2266H109.234V29.5ZM107.492 23.8203V19.7031H105.195C103.711 19.7031 102.844 20.4531 102.844 21.75V21.7656C102.844 23.0703 103.711 23.8203 105.195 23.8203H107.492ZM114.711 29.5V18.2266H116.445V26.625H116.484L122.289 18.2266H123.906V29.5H122.172V21.1094H122.133L116.32 29.5H114.711ZM127.898 29.5H126.148V18.2266H133.039V19.7344H127.898V29.5ZM134.656 29.5V18.2266H138.852C141.07 18.2266 142.594 19.7109 142.594 21.9219V21.9375C142.594 24.1406 141.07 25.6484 138.852 25.6484H136.406V29.5H134.656ZM138.422 19.7031H136.406V24.1797H138.422C139.938 24.1797 140.812 23.3594 140.812 21.9453V21.9297C140.812 20.5234 139.938 19.7031 138.422 19.7031ZM142.57 29.5L146.672 18.2266H148.562L152.656 29.5H150.82L149.789 26.4531H145.445L144.406 29.5H142.57ZM147.602 20.0938L145.914 25.0469H149.312L147.633 20.0938H147.602Z" fill="white"/>
</svg>
