<svg width="296" height="48" viewBox="0 0 296 48" fill="none" xmlns="http://www.w3.org/2000/svg">
<rect width="296" height="48" rx="12" fill="white"/>
<rect x="4" y="4" width="103" height="40" rx="8" fill="#F5F5F5"/>
<path d="M21.1094 30V18.7266H23.1328L26.7812 27.7266H26.8281L30.4844 18.7266H32.5V30H30.9062V21.6797H30.8516L27.4531 30H26.1562L22.7656 21.6797H22.7031V30H21.1094ZM38.0469 30.1641C35.6875 30.1641 34.1484 28.5312 34.1484 25.8906V25.875C34.1484 23.25 35.7109 21.625 38.0469 21.625C40.3828 21.625 41.9453 23.2422 41.9453 25.875V25.8906C41.9453 28.5391 40.3984 30.1641 38.0469 30.1641ZM38.0547 28.75C39.375 28.75 40.2266 27.7031 40.2266 25.8906V25.875C40.2266 24.0781 39.3594 23.0391 38.0469 23.0391C36.7422 23.0391 35.875 24.0781 35.875 25.875V25.8906C35.875 27.7109 36.7344 28.75 38.0547 28.75ZM43.3906 30V21.7812H45.0625V27.5312H45.1406L48.9141 21.7812H50.5781V30H48.8984V24.2266H48.8281L45.0547 30H43.3906ZM55.6406 30V21.7812H57.3125V27.5312H57.3906L61.1641 21.7812H62.8281V30H61.1484V24.2266H61.0781L57.3047 30H55.6406ZM70.0859 23.125H66.3281V30H64.6406V21.7812H70.0859V23.125ZM71.5 32.7344V21.7812H73.1875V23.1953H73.2266C73.7188 22.2188 74.625 21.625 75.7969 21.625C77.8906 21.625 79.2344 23.2656 79.2344 25.8906V25.8984C79.2344 28.5156 77.8828 30.1641 75.8203 30.1641C74.6562 30.1641 73.7109 29.5703 73.2266 28.6172H73.1875V32.7344H71.5ZM75.3594 28.7109C76.6875 28.7109 77.5156 27.6328 77.5156 25.8984V25.8906C77.5156 24.1406 76.6875 23.0703 75.3594 23.0703C74.0781 23.0703 73.1797 24.1797 73.1797 25.8906V25.8984C73.1797 27.6016 74.0859 28.7109 75.3594 28.7109ZM80.6875 30V21.7812H82.375V24.3203H83.9375C85.8359 24.3203 87.0625 25.4219 87.0625 27.1484V27.1641C87.0625 28.8984 85.8359 30 83.9375 30H80.6875ZM88.0391 30V21.7812H89.7344V30H88.0391ZM83.7734 25.6562H82.375V28.6641H83.7734C84.7344 28.6641 85.3359 28.0703 85.3359 27.1641V27.1484C85.3359 26.2422 84.7266 25.6562 83.7734 25.6562Z" fill="#1E1B1B"/>
<path opacity="0.5" d="M128.93 30.1875C125.734 30.1875 123.703 27.9375 123.703 24.3594V24.3516C123.703 20.7734 125.734 18.5391 128.93 18.5391C131.414 18.5391 133.281 20.0703 133.641 22.2969L133.648 22.3672H131.914L131.867 22.2109C131.492 20.8906 130.445 20.0859 128.93 20.0859C126.836 20.0859 125.492 21.7422 125.492 24.3516V24.3594C125.492 26.9688 126.844 28.6406 128.93 28.6406C130.43 28.6406 131.469 27.8594 131.898 26.4297L131.914 26.3594H133.656L133.641 26.4375C133.289 28.6797 131.422 30.1875 128.93 30.1875ZM138.703 30.1641C136.344 30.1641 134.805 28.5312 134.805 25.8906V25.875C134.805 23.25 136.367 21.625 138.703 21.625C141.039 21.625 142.602 23.2422 142.602 25.875V25.8906C142.602 28.5391 141.055 30.1641 138.703 30.1641ZM138.711 28.75C140.031 28.75 140.883 27.7031 140.883 25.8906V25.875C140.883 24.0781 140.016 23.0391 138.703 23.0391C137.398 23.0391 136.531 24.0781 136.531 25.875V25.8906C136.531 27.7109 137.391 28.75 138.711 28.75ZM148.938 30H147.297V21.7812H149.43L152.047 27.8047H152.109L154.75 21.7812H156.828V30H155.18V24.2969H155.125L152.672 29.6797H151.438L148.992 24.2969H148.938V30ZM164.031 30V26.4297H160.328V30H158.641V21.7812H160.328V25.0938H164.031V21.7812H165.719V30H164.031ZM171.062 30.1641C168.703 30.1641 167.164 28.5312 167.164 25.8906V25.875C167.164 23.25 168.727 21.625 171.062 21.625C173.398 21.625 174.961 23.2422 174.961 25.875V25.8906C174.961 28.5391 173.414 30.1641 171.062 30.1641ZM171.07 28.75C172.391 28.75 173.242 27.7031 173.242 25.8906V25.875C173.242 24.0781 172.375 23.0391 171.062 23.0391C169.758 23.0391 168.891 24.0781 168.891 25.875V25.8906C168.891 27.7109 169.75 28.75 171.07 28.75ZM180.078 20.8828C178.469 20.8828 177.492 19.9062 177.492 18.5547V18.5078H178.82V18.5625C178.82 19.2422 179.258 19.8203 180.086 19.8203C180.883 19.8203 181.344 19.2422 181.344 18.5625V18.5078H182.68V18.5547C182.68 19.9062 181.703 20.8828 180.078 20.8828ZM176.406 30V21.7812H178.078V27.5312H178.156L181.93 21.7812H183.594V30H181.914V24.2266H181.844L178.07 30H176.406ZM188.656 30V21.7812H195.664V30H193.969V23.125H190.344V30H188.656ZM201.016 30.1641C198.656 30.1641 197.117 28.5312 197.117 25.8906V25.875C197.117 23.25 198.68 21.625 201.016 21.625C203.352 21.625 204.914 23.2422 204.914 25.875V25.8906C204.914 28.5391 203.367 30.1641 201.016 30.1641ZM201.023 28.75C202.344 28.75 203.195 27.7031 203.195 25.8906V25.875C203.195 24.0781 202.328 23.0391 201.016 23.0391C199.711 23.0391 198.844 24.0781 198.844 25.875V25.8906C198.844 27.7109 199.703 28.75 201.023 28.75ZM207.023 32.2266H205.461V28.6484H206.125C206.727 28.2734 207 27.2969 207.078 26.1875L207.375 21.7812H213.367V28.6484H214.641V32.2266H213.086V30H207.023V32.2266ZM211.672 28.6484V23.1328H208.828L208.602 26.2578C208.539 27.2422 208.336 28.0703 207.938 28.6094V28.6484H211.672ZM219.289 30.1641C216.875 30.1641 215.414 28.5156 215.414 25.9219V25.9141C215.414 23.3438 216.898 21.625 219.203 21.625C221.508 21.625 222.922 23.2812 222.922 25.75V26.3203H217.102C217.133 27.875 217.984 28.7812 219.328 28.7812C220.328 28.7812 220.992 28.2656 221.203 27.6484L221.227 27.5859H222.836L222.812 27.6719C222.555 28.9766 221.281 30.1641 219.289 30.1641ZM219.211 23.0078C218.117 23.0078 217.281 23.75 217.125 25.125H221.25C221.117 23.7031 220.312 23.0078 219.211 23.0078ZM226.633 26.3125C226.469 28.6172 225.914 30.0781 224.07 30.0781C223.75 30.0781 223.516 30.0312 223.398 29.9922V28.5156C223.477 28.5391 223.625 28.5703 223.836 28.5703C224.688 28.5703 224.977 27.7188 225.078 26.2266L225.375 21.7812H231.383V30H229.695V23.125H226.859L226.633 26.3125ZM233.203 30V21.7812H234.875V27.5312H234.953L238.727 21.7812H240.391V30H238.711V24.2266H238.641L234.867 30H233.203ZM244.758 26.3125C244.594 28.6172 244.039 30.0781 242.195 30.0781C241.875 30.0781 241.641 30.0312 241.523 29.9922V28.5156C241.602 28.5391 241.75 28.5703 241.961 28.5703C242.812 28.5703 243.102 27.7188 243.203 26.2266L243.5 21.7812H249.508V30H247.82V23.125H244.984L244.758 26.3125ZM251.328 30V21.7812H253V27.5312H253.078L256.852 21.7812H258.516V30H256.836V24.2266H256.766L252.992 30H251.328ZM263.859 30.1641C261.461 30.1641 259.961 28.5156 259.961 25.8828V25.875C259.961 23.2734 261.492 21.625 263.844 21.625C265.953 21.625 267.234 22.9844 267.375 24.5312L267.383 24.5859H265.773L265.758 24.5234C265.578 23.7188 264.953 23.0391 263.852 23.0391C262.539 23.0391 261.688 24.1328 261.688 25.8906V25.8984C261.688 27.6953 262.555 28.75 263.867 28.75C264.906 28.75 265.562 28.1484 265.766 27.2578L265.781 27.1953H267.398L267.391 27.25C267.211 28.8984 265.836 30.1641 263.859 30.1641ZM268.734 30V21.7812H270.422V24.3203H271.984C273.883 24.3203 275.109 25.4219 275.109 27.1484V27.1641C275.109 28.8984 273.883 30 271.984 30H268.734ZM271.82 25.6562H270.422V28.6641H271.82C272.781 28.6641 273.383 28.0703 273.383 27.1641V27.1484C273.383 26.2422 272.773 25.6562 271.82 25.6562Z" fill="#1E1B1B"/>
</svg>
