<svg width="166" height="48" viewBox="0 0 166 48" fill="none" xmlns="http://www.w3.org/2000/svg">
<rect x="0.5" width="165" height="48" rx="12" fill="white"/>
<path d="M14.3281 32.2266H12.7188V28.4922H13.5391C14.3438 28.0156 14.625 27.0547 14.7109 25.5625L15.125 18.7266H22.4688V28.4922H23.875V32.2266H22.2734V30H14.3281V32.2266ZM16.3359 25.6484C16.2578 26.9219 16.1016 27.7891 15.5625 28.4297V28.4922H20.7188V20.2344H16.6797L16.3359 25.6484ZM27.6172 30.1484C25.9766 30.1484 24.875 29.1406 24.875 27.6641V27.6484C24.875 26.2188 25.9844 25.3438 27.9297 25.2266L30.1719 25.0938V24.4766C30.1719 23.5703 29.5781 23.0234 28.5312 23.0234C27.5547 23.0234 26.9531 23.4844 26.8125 24.1406L26.7969 24.2109H25.2031L25.2109 24.125C25.3281 22.7109 26.5547 21.625 28.5781 21.625C30.5859 21.625 31.8594 22.6875 31.8594 24.3359V30H30.1719V28.7031H30.1328C29.6562 29.5859 28.7109 30.1484 27.6172 30.1484ZM26.5781 27.625C26.5781 28.3438 27.1719 28.7969 28.0781 28.7969C29.2656 28.7969 30.1719 27.9922 30.1719 26.9219V26.2812L28.1562 26.4062C27.1406 26.4688 26.5781 26.9141 26.5781 27.6094V27.625ZM39.7656 21.7812V23.125H37.1953V30H35.5V23.125H32.9297V21.7812H39.7656ZM43.1484 30.1484C41.5078 30.1484 40.4062 29.1406 40.4062 27.6641V27.6484C40.4062 26.2188 41.5156 25.3438 43.4609 25.2266L45.7031 25.0938V24.4766C45.7031 23.5703 45.1094 23.0234 44.0625 23.0234C43.0859 23.0234 42.4844 23.4844 42.3438 24.1406L42.3281 24.2109H40.7344L40.7422 24.125C40.8594 22.7109 42.0859 21.625 44.1094 21.625C46.1172 21.625 47.3906 22.6875 47.3906 24.3359V30H45.7031V28.7031H45.6641C45.1875 29.5859 44.2422 30.1484 43.1484 30.1484ZM42.1094 27.625C42.1094 28.3438 42.7031 28.7969 43.6094 28.7969C44.7969 28.7969 45.7031 27.9922 45.7031 26.9219V26.2812L43.6875 26.4062C42.6719 26.4688 42.1094 26.9141 42.1094 27.6094V27.625ZM55.9531 30.1641C53.5547 30.1641 52.0547 28.5156 52.0547 25.8828V25.875C52.0547 23.2734 53.5859 21.625 55.9375 21.625C58.0469 21.625 59.3281 22.9844 59.4688 24.5312L59.4766 24.5859H57.8672L57.8516 24.5234C57.6719 23.7188 57.0469 23.0391 55.9453 23.0391C54.6328 23.0391 53.7812 24.1328 53.7812 25.8906V25.8984C53.7812 27.6953 54.6484 28.75 55.9609 28.75C57 28.75 57.6562 28.1484 57.8594 27.2578L57.875 27.1953H59.4922L59.4844 27.25C59.3047 28.8984 57.9297 30.1641 55.9531 30.1641ZM64.3594 30.1641C62 30.1641 60.4609 28.5312 60.4609 25.8906V25.875C60.4609 23.25 62.0234 21.625 64.3594 21.625C66.6953 21.625 68.2578 23.2422 68.2578 25.875V25.8906C68.2578 28.5391 66.7109 30.1641 64.3594 30.1641ZM64.3672 28.75C65.6875 28.75 66.5391 27.7031 66.5391 25.8906V25.875C66.5391 24.0781 65.6719 23.0391 64.3594 23.0391C63.0547 23.0391 62.1875 24.0781 62.1875 25.875V25.8906C62.1875 27.7109 63.0469 28.75 64.3672 28.75ZM72.6641 30.1641C70.7422 30.1641 69.4219 29.2422 69.2578 27.7891L69.25 27.7188H70.9062L70.9297 27.7969C71.1172 28.4609 71.7266 28.8203 72.6562 28.8203C73.6953 28.8203 74.3359 28.3594 74.3359 27.6094V27.5938C74.3359 26.8047 73.7891 26.4297 72.6484 26.4297H71.4609V25.2031H72.6406C73.6328 25.2031 74.1406 24.8281 74.1406 24.0938V24.0781C74.1406 23.375 73.6094 22.9609 72.7188 22.9609C71.8359 22.9609 71.2188 23.3438 71.0938 23.9688L71.0859 24.0234H69.4766L69.4844 23.9609C69.6797 22.5 70.8906 21.625 72.7422 21.625C74.6328 21.625 75.7891 22.4922 75.7891 23.8984V23.9141C75.7891 24.7969 75.2188 25.4922 74.3359 25.6953V25.7578C75.4219 25.9766 76.0156 26.6328 76.0156 27.5938V27.6094C76.0156 29.1406 74.6797 30.1641 72.6641 30.1641ZM78.2891 32.2266H76.7266V28.6484H77.3906C77.9922 28.2734 78.2656 27.2969 78.3438 26.1875L78.6406 21.7812H84.6328V28.6484H85.9062V32.2266H84.3516V30H78.2891V32.2266ZM82.9375 28.6484V23.1328H80.0938L79.8672 26.2578C79.8047 27.2422 79.6016 28.0703 79.2031 28.6094V28.6484H82.9375ZM89.4766 30.1484C87.8359 30.1484 86.7344 29.1406 86.7344 27.6641V27.6484C86.7344 26.2188 87.8438 25.3438 89.7891 25.2266L92.0312 25.0938V24.4766C92.0312 23.5703 91.4375 23.0234 90.3906 23.0234C89.4141 23.0234 88.8125 23.4844 88.6719 24.1406L88.6562 24.2109H87.0625L87.0703 24.125C87.1875 22.7109 88.4141 21.625 90.4375 21.625C92.4453 21.625 93.7188 22.6875 93.7188 24.3359V30H92.0312V28.7031H91.9922C91.5156 29.5859 90.5703 30.1484 89.4766 30.1484ZM88.4375 27.625C88.4375 28.3438 89.0312 28.7969 89.9375 28.7969C91.125 28.7969 92.0312 27.9922 92.0312 26.9219V26.2812L90.0156 26.4062C89 26.4688 88.4375 26.9141 88.4375 27.6094V27.625ZM100.891 30V26.4297H97.1875V30H95.5V21.7812H97.1875V25.0938H100.891V21.7812H102.578V30H100.891ZM104.391 30V21.7812H106.062V27.5312H106.141L109.914 21.7812H111.578V30H109.898V24.2266H109.828L106.055 30H104.391ZM118.078 30V27.1797H116.758L114.773 30H112.852L115.094 26.8906C113.953 26.5547 113.25 25.7031 113.25 24.5625V24.5469C113.25 22.8438 114.5 21.7812 116.422 21.7812H119.758V30H118.078ZM116.508 25.875H118.078V23.1172H116.508C115.547 23.1172 114.961 23.6484 114.961 24.5391V24.5547C114.961 25.3281 115.555 25.875 116.508 25.875Z" fill="#1E1B1B"/>
<path d="M133.25 24C133.25 23.8011 133.329 23.6103 133.47 23.4697C133.61 23.329 133.801 23.25 134 23.25H140.75C140.949 23.25 141.14 23.329 141.28 23.4697C141.421 23.6103 141.5 23.8011 141.5 24C141.5 24.1989 141.421 24.3897 141.28 24.5303C141.14 24.671 140.949 24.75 140.75 24.75H134C133.801 24.75 133.61 24.671 133.47 24.5303C133.329 24.3897 133.25 24.1989 133.25 24ZM134 18.75H139.25C139.449 18.75 139.64 18.671 139.78 18.5303C139.921 18.3897 140 18.1989 140 18C140 17.8011 139.921 17.6103 139.78 17.4697C139.64 17.329 139.449 17.25 139.25 17.25H134C133.801 17.25 133.61 17.329 133.47 17.4697C133.329 17.6103 133.25 17.8011 133.25 18C133.25 18.1989 133.329 18.3897 133.47 18.5303C133.61 18.671 133.801 18.75 134 18.75ZM146.75 29.25H134C133.801 29.25 133.61 29.329 133.47 29.4697C133.329 29.6103 133.25 29.8011 133.25 30C133.25 30.1989 133.329 30.3897 133.47 30.5303C133.61 30.671 133.801 30.75 134 30.75H146.75C146.949 30.75 147.14 30.671 147.28 30.5303C147.421 30.3897 147.5 30.1989 147.5 30C147.5 29.8011 147.421 29.6103 147.28 29.4697C147.14 29.329 146.949 29.25 146.75 29.25ZM151.031 19.7194L147.281 15.9694C147.211 15.8997 147.128 15.8443 147.037 15.8066C146.946 15.7688 146.849 15.7494 146.75 15.7494C146.651 15.7494 146.554 15.7688 146.463 15.8066C146.372 15.8443 146.289 15.8997 146.219 15.9694L142.469 19.7194C142.329 19.8601 142.25 20.051 142.25 20.25C142.25 20.449 142.329 20.6399 142.469 20.7806C142.61 20.9214 142.801 21.0004 143 21.0004C143.199 21.0004 143.39 20.9214 143.531 20.7806L146 18.3103V25.5C146 25.6989 146.079 25.8897 146.22 26.0303C146.36 26.171 146.551 26.25 146.75 26.25C146.949 26.25 147.14 26.171 147.28 26.0303C147.421 25.8897 147.5 25.6989 147.5 25.5V18.3103L149.969 20.7806C150.039 20.8503 150.122 20.9056 150.213 20.9433C150.304 20.981 150.401 21.0004 150.5 21.0004C150.599 21.0004 150.696 20.981 150.787 20.9433C150.878 20.9056 150.961 20.8503 151.031 20.7806C151.1 20.711 151.156 20.6282 151.193 20.5372C151.231 20.4461 151.25 20.3486 151.25 20.25C151.25 20.1515 151.231 20.0539 151.193 19.9628C151.156 19.8718 151.1 19.7891 151.031 19.7194Z" fill="#1E1B1B"/>
</svg>
