<svg width="88" height="48" viewBox="0 0 88 48" fill="none" xmlns="http://www.w3.org/2000/svg">
<rect width="88" height="48" rx="12" fill="white"/>
<rect x="4" y="4" width="40" height="40" rx="8" fill="#F5F5F5"/>
<path d="M21.2727 14H15.8182C15.336 14 14.8735 14.1916 14.5325 14.5325C14.1916 14.8735 14 15.336 14 15.8182V21.2727C14 21.7549 14.1916 22.2174 14.5325 22.5584C14.8735 22.8994 15.336 23.0909 15.8182 23.0909H21.2727C21.7549 23.0909 22.2174 22.8994 22.5584 22.5584C22.8994 22.2174 23.0909 21.7549 23.0909 21.2727V15.8182C23.0909 15.336 22.8994 14.8735 22.5584 14.5325C22.2174 14.1916 21.7549 14 21.2727 14ZM21.2727 21.2727H15.8182V15.8182H21.2727V21.2727ZM32.1818 14H26.7273C26.2451 14 25.7826 14.1916 25.4416 14.5325C25.1006 14.8735 24.9091 15.336 24.9091 15.8182V21.2727C24.9091 21.7549 25.1006 22.2174 25.4416 22.5584C25.7826 22.8994 26.2451 23.0909 26.7273 23.0909H32.1818C32.664 23.0909 33.1265 22.8994 33.4675 22.5584C33.8084 22.2174 34 21.7549 34 21.2727V15.8182C34 15.336 33.8084 14.8735 33.4675 14.5325C33.1265 14.1916 32.664 14 32.1818 14ZM32.1818 21.2727H26.7273V15.8182H32.1818V21.2727ZM21.2727 24.9091H15.8182C15.336 24.9091 14.8735 25.1006 14.5325 25.4416C14.1916 25.7826 14 26.2451 14 26.7273V32.1818C14 32.664 14.1916 33.1265 14.5325 33.4675C14.8735 33.8084 15.336 34 15.8182 34H21.2727C21.7549 34 22.2174 33.8084 22.5584 33.4675C22.8994 33.1265 23.0909 32.664 23.0909 32.1818V26.7273C23.0909 26.2451 22.8994 25.7826 22.5584 25.4416C22.2174 25.1006 21.7549 24.9091 21.2727 24.9091ZM21.2727 32.1818H15.8182V26.7273H21.2727V32.1818ZM32.1818 24.9091H26.7273C26.2451 24.9091 25.7826 25.1006 25.4416 25.4416C25.1006 25.7826 24.9091 26.2451 24.9091 26.7273V32.1818C24.9091 32.664 25.1006 33.1265 25.4416 33.4675C25.7826 33.8084 26.2451 34 26.7273 34H32.1818C32.664 34 33.1265 33.8084 33.4675 33.4675C33.8084 33.1265 34 32.664 34 32.1818V26.7273C34 26.2451 33.8084 25.7826 33.4675 25.4416C33.1265 25.1006 32.664 24.9091 32.1818 24.9091ZM32.1818 32.1818H26.7273V26.7273H32.1818V32.1818Z" fill="#1E1B1B"/>
<path d="M77.6667 24C77.6667 24.2947 77.5496 24.5773 77.3412 24.7857C77.1329 24.994 76.8502 25.1111 76.5556 25.1111H52.1111C51.8164 25.1111 51.5338 24.994 51.3254 24.7857C51.1171 24.5773 51 24.2947 51 24C51 23.7053 51.1171 23.4227 51.3254 23.2143C51.5338 23.006 51.8164 22.8889 52.1111 22.8889H76.5556C76.8502 22.8889 77.1329 23.006 77.3412 23.2143C77.5496 23.4227 77.6667 23.7053 77.6667 24ZM52.1111 16.2222H76.5556C76.8502 16.2222 77.1329 16.1052 77.3412 15.8968C77.5496 15.6884 77.6667 15.4058 77.6667 15.1111C77.6667 14.8164 77.5496 14.5338 77.3412 14.3254C77.1329 14.1171 76.8502 14 76.5556 14H52.1111C51.8164 14 51.5338 14.1171 51.3254 14.3254C51.1171 14.5338 51 14.8164 51 15.1111C51 15.4058 51.1171 15.6884 51.3254 15.8968C51.5338 16.1052 51.8164 16.2222 52.1111 16.2222ZM76.5556 31.7778H52.1111C51.8164 31.7778 51.5338 31.8948 51.3254 32.1032C51.1171 32.3116 51 32.5942 51 32.8889C51 33.1836 51.1171 33.4662 51.3254 33.6746C51.5338 33.8829 51.8164 34 52.1111 34H76.5556C76.8502 34 77.1329 33.8829 77.3412 33.6746C77.5496 33.4662 77.6667 33.1836 77.6667 32.8889C77.6667 32.5942 77.5496 32.3116 77.3412 32.1032C77.1329 31.8948 76.8502 31.7778 76.5556 31.7778Z" fill="#1E1B1B"/>
</svg>
