<svg width="358" height="49" viewBox="0 0 358 49" fill="none" xmlns="http://www.w3.org/2000/svg">
<rect x="0.5" y="0.5" width="357" height="48" rx="12" fill="white"/>
<path d="M114.5 26V32C114.5 32.1989 114.421 32.3897 114.28 32.5303C114.14 32.671 113.949 32.75 113.75 32.75H97.25C97.0511 32.75 96.8603 32.671 96.7197 32.5303C96.579 32.3897 96.5 32.1989 96.5 32V26C96.5 25.8011 96.579 25.6103 96.7197 25.4697C96.8603 25.329 97.0511 25.25 97.25 25.25C97.4489 25.25 97.6397 25.329 97.7803 25.4697C97.921 25.6103 98 25.8011 98 26V31.25H113V26C113 25.8011 113.079 25.6103 113.22 25.4697C113.36 25.329 113.551 25.25 113.75 25.25C113.949 25.25 114.14 25.329 114.28 25.4697C114.421 25.6103 114.5 25.8011 114.5 26ZM104.969 26.5306C105.039 26.6004 105.122 26.6557 105.213 26.6934C105.304 26.7312 105.401 26.7506 105.5 26.7506C105.599 26.7506 105.696 26.7312 105.787 26.6934C105.878 26.6557 105.961 26.6004 106.031 26.5306L109.781 22.7806C109.85 22.7109 109.906 22.6282 109.943 22.5372C109.981 22.4461 110 22.3485 110 22.25C110 22.1515 109.981 22.0539 109.943 21.9628C109.906 21.8718 109.85 21.7891 109.781 21.7194C109.711 21.6497 109.628 21.5944 109.537 21.5567C109.446 21.519 109.349 21.4996 109.25 21.4996C109.151 21.4996 109.054 21.519 108.963 21.5567C108.872 21.5944 108.789 21.6497 108.719 21.7194L106.25 24.1897V15.5C106.25 15.3011 106.171 15.1103 106.03 14.9697C105.89 14.829 105.699 14.75 105.5 14.75C105.301 14.75 105.11 14.829 104.97 14.9697C104.829 15.1103 104.75 15.3011 104.75 15.5V24.1897L102.281 21.7194C102.14 21.5786 101.949 21.4996 101.75 21.4996C101.551 21.4996 101.36 21.5786 101.219 21.7194C101.079 21.8601 101 22.051 101 22.25C101 22.449 101.079 22.6399 101.219 22.7806L104.969 26.5306Z" fill="#1E1B1B"/>
<path d="M126.617 30V18.7266H128.352V27.125H128.391L134.195 18.7266H135.812V30H134.078V21.6094H134.039L128.227 30H126.617ZM138.047 30V18.7266H140.07L143.719 27.7266H143.766L147.422 18.7266H149.438V30H147.844V21.6797H147.789L144.391 30H143.094L139.703 21.6797H139.641V30H138.047ZM160.836 30H159.086V20.2344H153.414V30H151.664V18.7266H160.836V30ZM167.938 30.1875C164.688 30.1875 162.656 27.9531 162.656 24.3672V24.3516C162.656 20.7734 164.695 18.5391 167.938 18.5391C171.188 18.5391 173.219 20.7812 173.219 24.3516V24.3672C173.219 27.9453 171.195 30.1875 167.938 30.1875ZM167.938 28.6406C170.102 28.6406 171.43 26.9688 171.43 24.3672V24.3516C171.43 21.7344 170.078 20.0859 167.938 20.0859C165.805 20.0859 164.438 21.7266 164.438 24.3516V24.3672C164.438 26.9922 165.797 28.6406 167.938 28.6406ZM175.031 30V18.7266H179.227C181.445 18.7266 182.969 20.2109 182.969 22.4219V22.4375C182.969 24.6406 181.445 26.1484 179.227 26.1484H176.781V30H175.031ZM178.797 20.2031H176.781V24.6797H178.797C180.312 24.6797 181.188 23.8594 181.188 22.4453V22.4297C181.188 21.0234 180.312 20.2031 178.797 20.2031ZM187.25 30V20.2344H183.797V18.7266H192.445V20.2344H189V30H187.25ZM194.023 30V18.7266H195.758V27.125H195.797L201.602 18.7266H203.219V30H201.484V21.6094H201.445L195.633 30H194.023ZM205.453 30V18.7266H209.648C211.867 18.7266 213.391 20.2109 213.391 22.4219V22.4375C213.391 24.6406 211.867 26.1484 209.648 26.1484H207.203V30H205.453ZM209.219 20.2031H207.203V24.6797H209.219C210.734 24.6797 211.609 23.8594 211.609 22.4453V22.4297C211.609 21.0234 210.734 20.2031 209.219 20.2031ZM219.953 30.1875C216.703 30.1875 214.672 27.9531 214.672 24.3672V24.3516C214.672 20.7734 216.711 18.5391 219.953 18.5391C223.203 18.5391 225.234 20.7812 225.234 24.3516V24.3672C225.234 27.9453 223.211 30.1875 219.953 30.1875ZM219.953 28.6406C222.117 28.6406 223.445 26.9688 223.445 24.3672V24.3516C223.445 21.7344 222.094 20.0859 219.953 20.0859C217.82 20.0859 216.453 21.7266 216.453 24.3516V24.3672C216.453 26.9922 217.812 28.6406 219.953 28.6406ZM227.047 30V18.7266H231.547C233.547 18.7266 234.867 19.8438 234.867 21.5469V21.5625C234.867 22.75 233.961 23.8516 232.773 24.0234V24.0547C234.375 24.2188 235.414 25.3203 235.414 26.8047V26.8203C235.414 28.7969 233.969 30 231.57 30H227.047ZM231.125 20.1562H228.797V23.5312H230.742C232.281 23.5312 233.117 22.9062 233.117 21.7734V21.7578C233.117 20.7266 232.391 20.1562 231.125 20.1562ZM231.094 24.8828H228.797V28.5703H231.219C232.781 28.5703 233.625 27.9375 233.625 26.7344V26.7188C233.625 25.5078 232.766 24.8828 231.094 24.8828ZM236.148 30L240.25 18.7266H242.141L246.234 30H244.398L243.367 26.9531H239.023L237.984 30H236.148ZM241.18 20.5938L239.492 25.5469H242.891L241.211 20.5938H241.18ZM249.062 30V20.2344H245.609V18.7266H254.258V20.2344H250.812V30H249.062ZM255.836 30V18.7266H257.586V22.7656H260.133C262.352 22.7656 263.906 24.2422 263.906 26.375V26.3906C263.906 28.5234 262.383 30 260.188 30H255.836ZM259.727 24.2422H257.586V28.5156H259.727C261.242 28.5156 262.117 27.75 262.117 26.3906V26.375C262.117 25.0078 261.234 24.2422 259.727 24.2422Z" fill="#1E1B1B"/>
</svg>
