<svg width="72" height="73" viewBox="0 0 72 73" fill="none" xmlns="http://www.w3.org/2000/svg">
<rect y="0.5" width="72" height="72" rx="18" fill="white"/>
<path d="M44.506 33H40.0048C39.6069 33 39.2253 32.842 38.9439 32.5607C38.6625 32.2794 38.5044 31.8978 38.5044 31.5C38.5044 31.1022 38.6625 30.7206 38.9439 30.4393C39.2253 30.158 39.6069 30 40.0048 30H44.506C44.904 30 45.2856 30.158 45.567 30.4393C45.8484 30.7206 46.0064 31.1022 46.0064 31.5C46.0064 31.8978 45.8484 32.2794 45.567 32.5607C45.2856 32.842 44.904 33 44.506 33ZM31.0024 30H29.502V28.5C29.502 28.1022 29.3439 27.7206 29.0625 27.4393C28.7811 27.158 28.3995 27 28.0016 27C27.6036 27 27.222 27.158 26.9406 27.4393C26.6592 27.7206 26.5012 28.1022 26.5012 28.5V30H25.0008C24.6028 30 24.2212 30.158 23.9398 30.4393C23.6584 30.7206 23.5003 31.1022 23.5003 31.5C23.5003 31.8978 23.6584 32.2794 23.9398 32.5607C24.2212 32.842 24.6028 33 25.0008 33H26.5012V34.5C26.5012 34.8978 26.6592 35.2794 26.9406 35.5607C27.222 35.842 27.6036 36 28.0016 36C28.3995 36 28.7811 35.842 29.0625 35.5607C29.3439 35.2794 29.502 34.8978 29.502 34.5V33H31.0024C31.4003 33 31.7819 32.842 32.0633 32.5607C32.3447 32.2794 32.5028 31.8978 32.5028 31.5C32.5028 31.1022 32.3447 30.7206 32.0633 30.4393C31.7819 30.158 31.4003 30 31.0024 30ZM56.7869 49.6219C56.2214 50.4292 55.486 51.1028 54.6322 51.5956C53.7785 52.0884 52.8272 52.3883 51.8451 52.4742C50.8631 52.5602 49.8741 52.4301 48.9477 52.0932C48.0214 51.7562 47.18 51.2205 46.4828 50.5238C46.4603 50.5013 46.4378 50.4788 46.4172 50.4544L38.9695 42H32.0302L24.59 50.4544L24.5244 50.5238C23.2569 51.7881 21.5399 52.4988 19.7493 52.5C18.7636 52.4996 17.79 52.2835 16.8967 51.8668C16.0035 51.4501 15.2124 50.8429 14.5789 50.088C13.9454 49.333 13.485 48.4485 13.23 47.4966C12.9749 46.5447 12.9314 45.5486 13.1025 44.5781C13.1016 44.5694 13.1016 44.5606 13.1025 44.5519L16.1727 28.785C16.6297 26.1845 17.9887 23.8282 20.0111 22.1301C22.0334 20.432 24.5897 19.5007 27.2307 19.5H43.7558C46.3889 19.5042 48.9373 20.4301 50.9587 22.117C52.9801 23.8039 54.3467 26.1452 54.8213 28.7344C54.8213 28.7456 54.8213 28.7569 54.8213 28.7681L57.8915 44.55C57.8924 44.5587 57.8924 44.5675 57.8915 44.5763C58.0504 45.4485 58.0346 46.3436 57.845 47.2097C57.6554 48.0758 57.2957 48.8957 56.7869 49.6219ZM43.7558 39C45.9445 39 48.0434 38.1308 49.591 36.5836C51.1386 35.0365 52.0081 32.938 52.0081 30.75C52.0081 28.562 51.1386 26.4635 49.591 24.9164C48.0434 23.3692 45.9445 22.5 43.7558 22.5H27.2307C25.2932 22.5017 23.4184 23.1865 21.9361 24.4338C20.4538 25.6811 19.459 27.4111 19.1267 29.3194V29.3438L16.0546 45.1106C15.9188 45.8923 16.0345 46.6969 16.385 47.4087C16.7355 48.1204 17.3028 48.7028 18.0053 49.0718C18.7078 49.4409 19.5093 49.5777 20.2945 49.4626C21.0797 49.3475 21.8081 48.9864 22.375 48.4313L30.2372 39.5081C30.3779 39.3485 30.5511 39.2206 30.7451 39.133C30.9391 39.0454 31.1496 39 31.3625 39H43.7558ZM54.9526 45.1106L53.3134 36.6731C52.3053 38.3006 50.8984 39.644 49.2259 40.5762C47.5534 41.5083 45.6707 41.9984 43.7558 42H42.9681L48.6322 48.4331C49.0592 48.8484 49.5787 49.1565 50.1479 49.3322C50.7171 49.5079 51.3199 49.5461 51.9068 49.4437C52.8845 49.2712 53.7539 48.7183 54.3244 47.906C54.895 47.0938 55.1202 46.0886 54.9507 45.1106H54.9526Z" fill="#8E959D"/>
</svg>
