<svg width="382" height="48" viewBox="0 0 382 48" fill="none" xmlns="http://www.w3.org/2000/svg">
<rect x="0.5" width="381" height="48" rx="12" fill="white"/>
<path opacity="0.5" d="M13.6094 30V18.7266H15.3594V23.4922H21.1484V18.7266H22.8984V30H21.1484V25.0078H15.3594V30H13.6094ZM27.3359 30.1484C25.6953 30.1484 24.5938 29.1406 24.5938 27.6641V27.6484C24.5938 26.2188 25.7031 25.3438 27.6484 25.2266L29.8906 25.0938V24.4766C29.8906 23.5703 29.2969 23.0234 28.25 23.0234C27.2734 23.0234 26.6719 23.4844 26.5312 24.1406L26.5156 24.2109H24.9219L24.9297 24.125C25.0469 22.7109 26.2734 21.625 28.2969 21.625C30.3047 21.625 31.5781 22.6875 31.5781 24.3359V30H29.8906V28.7031H29.8516C29.375 29.5859 28.4297 30.1484 27.3359 30.1484ZM26.2969 27.625C26.2969 28.3438 26.8906 28.7969 27.7969 28.7969C28.9844 28.7969 29.8906 27.9922 29.8906 26.9219V26.2812L27.875 26.4062C26.8594 26.4688 26.2969 26.9141 26.2969 27.6094V27.625ZM37.0312 20.8828C35.4219 20.8828 34.4453 19.9062 34.4453 18.5547V18.5078H35.7734V18.5625C35.7734 19.2422 36.2109 19.8203 37.0391 19.8203C37.8359 19.8203 38.2969 19.2422 38.2969 18.5625V18.5078H39.6328V18.5547C39.6328 19.9062 38.6562 20.8828 37.0312 20.8828ZM33.3594 30V21.7812H35.0312V27.5312H35.1094L38.8828 21.7812H40.5469V30H38.8672V24.2266H38.7969L35.0234 30H33.3594ZM48.6094 21.7812V23.125H46.0391V30H44.3438V23.125H41.7734V21.7812H48.6094ZM49.8438 30V21.7812H51.5156V27.5312H51.5938L55.3672 21.7812H57.0312V30H55.3516V24.2266H55.2812L51.5078 30H49.8438ZM62.0938 30V21.7812H63.7656V27.5312H63.8438L67.6172 21.7812H69.2812V30H67.6016V24.2266H67.5312L63.7578 30H62.0938ZM76.5391 23.125H72.7812V30H71.0938V21.7812H76.5391V23.125ZM77.9531 32.7344V21.7812H79.6406V23.1953H79.6797C80.1719 22.2188 81.0781 21.625 82.25 21.625C84.3438 21.625 85.6875 23.2656 85.6875 25.8906V25.8984C85.6875 28.5156 84.3359 30.1641 82.2734 30.1641C81.1094 30.1641 80.1641 29.5703 79.6797 28.6172H79.6406V32.7344H77.9531ZM81.8125 28.7109C83.1406 28.7109 83.9688 27.6328 83.9688 25.8984V25.8906C83.9688 24.1406 83.1406 23.0703 81.8125 23.0703C80.5312 23.0703 79.6328 24.1797 79.6328 25.8906V25.8984C79.6328 27.6016 80.5391 28.7109 81.8125 28.7109ZM87.8906 32.7422C87.5625 32.7422 87.2109 32.7031 87.0078 32.6641V31.3438C87.1406 31.375 87.3359 31.4062 87.5625 31.4062C88.3594 31.4062 88.7969 31.1953 89.0781 30.3984L89.2188 30.0078L86.2266 21.7812H88.0547L90.125 28.4688H90.1797L92.25 21.7812H94.0312L90.9688 30.3828C90.3594 32.0859 89.5 32.7422 87.8906 32.7422Z" fill="#1E1B1B"/>
<path d="M367.031 32.4694L362.337 27.7763C363.697 26.1429 364.375 24.0478 364.231 21.9269C364.086 19.8061 363.129 17.8227 361.559 16.3893C359.989 14.956 357.927 14.1831 355.802 14.2314C353.677 14.2797 351.652 15.1455 350.149 16.6487C348.645 18.1518 347.78 20.1767 347.731 22.3019C347.683 24.4272 348.456 26.4892 349.889 28.0591C351.323 29.629 353.306 30.5859 355.427 30.7307C357.548 30.8755 359.643 30.1971 361.276 28.8366L365.969 33.5306C366.039 33.6003 366.122 33.6556 366.213 33.6933C366.304 33.731 366.401 33.7504 366.5 33.7504C366.599 33.7504 366.696 33.731 366.787 33.6933C366.878 33.6556 366.961 33.6003 367.031 33.5306C367.1 33.4609 367.156 33.3782 367.193 33.2872C367.231 33.1961 367.25 33.0985 367.25 33C367.25 32.9015 367.231 32.8039 367.193 32.7128C367.156 32.6218 367.1 32.5391 367.031 32.4694ZM349.25 22.5C349.25 21.165 349.646 19.8599 350.388 18.7499C351.129 17.6399 352.183 16.7747 353.417 16.2638C354.65 15.7529 356.007 15.6192 357.317 15.8797C358.626 16.1402 359.829 16.783 360.773 17.727C361.717 18.671 362.36 19.8738 362.62 21.1831C362.881 22.4925 362.747 23.8497 362.236 25.0831C361.725 26.3165 360.86 27.3707 359.75 28.1124C358.64 28.8541 357.335 29.25 356 29.25C354.21 29.248 352.495 28.5362 351.229 27.2708C349.964 26.0053 349.252 24.2896 349.25 22.5Z" fill="#0D2325" fill-opacity="0.5"/>
</svg>
