<svg width="47" height="32" viewBox="0 0 47 32" fill="none" xmlns="http://www.w3.org/2000/svg">
<path d="M1.90741e-07 14.501L0 10.501H12V14.501L1.90741e-07 14.501Z" fill="white"/>
<path d="M1.90741e-07 26.501L0 22.501H12V26.501H1.90741e-07Z" fill="white"/>
<path d="M35 14.501V10.501H47V14.501L35 14.501Z" fill="white"/>
<path d="M35 26.501V22.501H47V26.501H35Z" fill="white"/>
<path d="M7.12891 31.501V0.499023H14.627L23.4355 22.7783H23.5645L32.373 0.499023H39.8711V31.501H34.0918V10.5322H31.084L37.5723 1.3584L25.541 31.501H21.459L9.42773 1.3584L15.916 10.5322H12.9082V31.501H7.12891Z" fill="white"/>
</svg>
