<svg width="24" height="25" viewBox="0 0 24 25" fill="none" xmlns="http://www.w3.org/2000/svg">
<g opacity="0.8">
<path d="M21 12.5C21 12.6989 20.921 12.8897 20.7803 13.0303C20.6397 13.171 20.4489 13.25 20.25 13.25H5.56029L11.0306 18.7194C11.1003 18.789 11.1556 18.8718 11.1933 18.9628C11.231 19.0539 11.2504 19.1514 11.2504 19.25C11.2504 19.3485 11.231 19.4461 11.1933 19.5372C11.1556 19.6282 11.1003 19.7109 11.0306 19.7806C10.9609 19.8503 10.8782 19.9056 10.7872 19.9433C10.6961 19.981 10.5985 20.0004 10.5 20.0004C10.4014 20.0004 10.3039 19.981 10.2128 19.9433C10.1218 19.9056 10.039 19.8503 9.96935 19.7806L3.21935 13.0306C3.14962 12.961 3.0943 12.8782 3.05656 12.7872C3.01882 12.6961 2.99939 12.5986 2.99939 12.5C2.99939 12.4014 3.01882 12.3038 3.05656 12.2128C3.0943 12.1217 3.14962 12.039 3.21935 11.9694L9.96935 5.21936C10.1101 5.07863 10.301 4.99957 10.5 4.99957C10.699 4.99957 10.8899 5.07863 11.0306 5.21936C11.1713 5.3601 11.2504 5.55097 11.2504 5.74999C11.2504 5.94901 11.1713 6.13988 11.0306 6.28061L5.56029 11.75H20.25C20.4489 11.75 20.6397 11.829 20.7803 11.9697C20.921 12.1103 21 12.3011 21 12.5Z" fill="#1E1B1B"/>
</g>
</svg>
