<svg width="48" height="48" viewBox="0 0 48 48" fill="none" xmlns="http://www.w3.org/2000/svg">
<rect width="48" height="48" rx="12" fill="#5B5DFF"/>
<path d="M33.7875 22.7334L20.28 14.4703C20.0523 14.3308 19.7914 14.2547 19.5244 14.2498C19.2575 14.2448 18.994 14.3112 18.7613 14.4422C18.5307 14.5711 18.3387 14.759 18.2049 14.9867C18.0711 15.2144 18.0004 15.4737 18 15.7378V32.2622C18.0017 32.6583 18.1607 33.0376 18.442 33.3166C18.7233 33.5956 19.1038 33.7515 19.5 33.75C19.7765 33.7499 20.0477 33.6736 20.2838 33.5297L33.7875 25.2665C34.0046 25.1342 34.184 24.9483 34.3084 24.7267C34.4329 24.5051 34.4983 24.2551 34.4983 24.0009C34.4983 23.7467 34.4329 23.4968 34.3084 23.2751C34.184 23.0535 34.0046 22.8676 33.7875 22.7353V22.7334ZM19.5 32.2444V15.75L32.9841 24L19.5 32.2444Z" fill="white"/>
</svg>
