<svg width="48" height="48" viewBox="0 0 48 48" fill="none" xmlns="http://www.w3.org/2000/svg">
<circle cx="24" cy="24" r="24" fill="#EFEDED"/>
<path d="M33 24C33 24.1989 32.921 24.3897 32.7803 24.5303C32.6397 24.671 32.4489 24.75 32.25 24.75H24.75V32.25C24.75 32.4489 24.671 32.6397 24.5303 32.7803C24.3897 32.921 24.1989 33 24 33C23.8011 33 23.6103 32.921 23.4697 32.7803C23.329 32.6397 23.25 32.4489 23.25 32.25V24.75H15.75C15.5511 24.75 15.3603 24.671 15.2197 24.5303C15.079 24.3897 15 24.1989 15 24C15 23.8011 15.079 23.6103 15.2197 23.4697C15.3603 23.329 15.5511 23.25 15.75 23.25H23.25V15.75C23.25 15.5511 23.329 15.3603 23.4697 15.2197C23.6103 15.079 23.8011 15 24 15C24.1989 15 24.3897 15.079 24.5303 15.2197C24.671 15.3603 24.75 15.5511 24.75 15.75V23.25H32.25C32.4489 23.25 32.6397 23.329 32.7803 23.4697C32.921 23.6103 33 23.8011 33 24Z" fill="#1E1B1B" fill-opacity="0.5"/>
</svg>
