<svg width="80" height="80" viewBox="0 0 80 80" fill="none" xmlns="http://www.w3.org/2000/svg">
<path d="M25.5503 3.32422C24.8843 3.33078 24.2375 3.53016 23.6853 3.91516C21.4025 5.50703 20.2893 10.4003 25.4087 14.848C25.2722 18.4191 31.9378 19.0652 29.2908 13.8078C31.6931 6.82063 28.4368 3.29688 25.5501 3.32438L25.5503 3.32422ZM65.4331 4.8186C64.4654 4.81985 63.4023 5.26922 62.8112 6.16625C59.194 11.6541 63.1042 14.45 66.8542 8.5C68.3953 6.05469 67.0464 4.81641 65.4333 4.81844L65.4331 4.8186ZM58.9148 14.7355C49.0054 23.6234 41.5664 36.3659 20.2136 27.382C23.1164 35.7402 19.1561 38.4898 15.3209 39.3008C13.9387 38.347 12.5861 37.0831 11.3562 35.507L8.34341 31.6445L8.75356 36.5273C9.55575 46.1469 13.0623 53.2545 18.8758 57.8361C24.6893 62.4177 32.6486 64.433 42.1961 64.433C57.1004 64.433 70.5976 54.9166 75.5653 41.308L76.4003 39.0178L73.9928 39.3594C73.1584 39.4777 72.5022 39.4444 71.9909 39.3156L76.9422 29.9161C74.704 30.8747 72.3554 32.04 70.0718 33.0802C70.3422 30.9983 70.9703 28.3708 72.0593 25.2236L73.6706 20.5556L69.779 23.593C65.8004 26.6977 61.5228 30.4075 57.3134 33.4758C55.9153 30.6848 56.122 25.0266 58.9148 14.7355ZM5.18435 21.8595C3.79716 21.8584 2.36997 23.6511 2.7331 25.4045C3.69497 30.0495 8.32591 28.7155 7.23997 24.1936C6.83481 22.5069 6.01669 21.8602 5.18435 21.8595ZM67.8942 28.8761C66.9234 32.6467 66.695 35.6002 67.2792 37.9142C67.6812 39.5069 68.5695 40.8369 69.867 41.5861C70.5061 41.9548 71.2076 42.1803 71.9568 42.2845C67.285 45.5194 60.469 43.3173 63.5928 34.9845C50.2822 52.8978 36.4511 54.7245 32.0059 41.0978C29.7226 54.6338 15.5484 51.6388 12.3575 40.7319C15.7965 43.5913 19.7478 44.9231 23.3975 44.2084C25.8433 43.7294 28.0814 42.2719 29.6865 39.9213C30.6225 38.5509 31.3462 36.88 31.8448 34.9213C33.8773 38.3169 36.2201 40.5153 38.8467 41.6547C42.4279 43.2081 46.304 42.688 50.0479 41.1516C56.1739 38.6381 62.2912 33.4728 67.8945 28.8763L67.8942 28.8761ZM66.9567 56.9523C68.7373 58.1458 69.784 59.4855 69.784 60.8781C69.784 65.9988 56.4137 70.1848 40.0379 70.1848C23.6623 70.1848 10.3797 65.9989 10.3797 60.8781C10.3797 59.5273 11.3437 58.2063 13.0262 57.0453C6.80747 59.1231 2.89435 61.9234 2.89435 64.9844C2.89435 71.3938 19.5423 76.5716 40.0381 76.5716C60.5339 76.5716 77.1768 71.3939 77.1768 64.9845C77.1768 61.8919 73.2875 59.0411 66.957 56.9523H66.9567Z" fill="white"/>
</svg>
