<svg width="248" height="48" viewBox="0 0 248 48" fill="none" xmlns="http://www.w3.org/2000/svg">
<rect width="248" height="48" rx="12" fill="#E7E7E7"/>
<rect x="4" y="4" width="120" height="40" rx="8" fill="white"/>
<path d="M52.0391 30V18.7266H53.7891V30H52.0391ZM60.7422 30.1875C57.4922 30.1875 55.4609 27.9531 55.4609 24.3672V24.3516C55.4609 20.7734 57.5 18.5391 60.7422 18.5391C63.9922 18.5391 66.0234 20.7812 66.0234 24.3516V24.3672C66.0234 27.9453 64 30.1875 60.7422 30.1875ZM60.7422 28.6406C62.9062 28.6406 64.2344 26.9688 64.2344 24.3672V24.3516C64.2344 21.7344 62.8828 20.0859 60.7422 20.0859C58.6094 20.0859 57.2422 21.7266 57.2422 24.3516V24.3672C57.2422 26.9922 58.6016 28.6406 60.7422 28.6406ZM71.5391 30.1875C69.0078 30.1875 67.3359 28.9844 67.1953 27L67.1875 26.8828H68.8906L68.9062 26.9844C69.0625 28.0234 70.1016 28.6719 71.6094 28.6719C73.1172 28.6719 74.0703 27.9922 74.0703 26.9375V26.9297C74.0703 26.0234 73.4531 25.5312 71.9609 25.2031L70.7344 24.9453C68.5234 24.4766 67.4531 23.4609 67.4531 21.7891V21.7812C67.4609 19.8594 69.1562 18.5391 71.5391 18.5391C73.8906 18.5391 75.5 19.8203 75.6172 21.7109L75.625 21.8438H73.9219L73.9141 21.7344C73.7578 20.6875 72.8516 20.0547 71.5156 20.0547C70.1172 20.0625 69.2266 20.7266 69.2266 21.7109V21.7188C69.2266 22.5625 69.8672 23.0781 71.2734 23.3828L72.5078 23.6406C74.8359 24.1328 75.8359 25.0781 75.8359 26.8203V26.8281C75.8359 28.8828 74.2109 30.1875 71.5391 30.1875Z" fill="#1E1B1B"/>
<path opacity="0.5" d="M156.703 30L160.805 18.7266H162.695L166.789 30H164.953L163.922 26.9531H159.578L158.539 30H156.703ZM161.734 20.5938L160.047 25.5469H163.445L161.766 20.5938H161.734ZM167.836 30V21.7812H169.523V23.0234H169.562C169.992 22.1875 170.836 21.625 172.078 21.625C173.883 21.625 174.922 22.7891 174.922 24.6797V30H173.227V25C173.227 23.7656 172.648 23.0703 171.477 23.0703C170.289 23.0703 169.523 23.9297 169.523 25.2109V30H167.836ZM179.625 30.1641C177.531 30.1641 176.188 28.5078 176.188 25.8906V25.8828C176.188 23.2656 177.547 21.625 179.609 21.625C180.773 21.625 181.711 22.2109 182.203 23.1797H182.234V18.7266H183.93V30H182.234V28.6094H182.203C181.711 29.5703 180.805 30.1641 179.625 30.1641ZM180.07 28.7109C181.344 28.7109 182.242 27.6016 182.242 25.8906V25.8828C182.242 24.1797 181.336 23.0703 180.07 23.0703C178.742 23.0703 177.914 24.1484 177.914 25.8828V25.8906C177.914 27.6406 178.734 28.7109 180.07 28.7109ZM185.664 30V21.7812H187.352V23.1875H187.391C187.656 22.2266 188.344 21.625 189.281 21.625C189.523 21.625 189.734 21.6641 189.867 21.6875V23.2578C189.734 23.2031 189.438 23.1641 189.109 23.1641C188.023 23.1641 187.352 23.875 187.352 25.1016V30H185.664ZM194.086 30.1641C191.727 30.1641 190.188 28.5312 190.188 25.8906V25.875C190.188 23.25 191.742 21.625 194.078 21.625C196.422 21.625 197.984 23.2422 197.984 25.875V25.8906C197.984 28.5391 196.438 30.1641 194.086 30.1641ZM194.094 28.75C195.414 28.75 196.258 27.7031 196.258 25.8906V25.875C196.258 24.0781 195.398 23.0391 194.078 23.0391C192.781 23.0391 191.914 24.0781 191.914 25.875V25.8906C191.914 27.7109 192.773 28.75 194.094 28.75ZM200.203 20.5156C199.656 20.5156 199.219 20.0781 199.219 19.5469C199.219 19.0078 199.656 18.5703 200.203 18.5703C200.758 18.5703 201.188 19.0078 201.188 19.5469C201.188 20.0781 200.758 20.5156 200.203 20.5156ZM199.359 30V21.7812H201.047V30H199.359ZM205.859 30.1641C203.766 30.1641 202.422 28.5078 202.422 25.8906V25.8828C202.422 23.2656 203.781 21.625 205.844 21.625C207.008 21.625 207.945 22.2109 208.438 23.1797H208.469V18.7266H210.164V30H208.469V28.6094H208.438C207.945 29.5703 207.039 30.1641 205.859 30.1641ZM206.305 28.7109C207.578 28.7109 208.477 27.6016 208.477 25.8906V25.8828C208.477 24.1797 207.57 23.0703 206.305 23.0703C204.977 23.0703 204.148 24.1484 204.148 25.8828V25.8906C204.148 27.6406 204.969 28.7109 206.305 28.7109Z" fill="#1E1B1B"/>
</svg>
